<?xml version="1.0" encoding="utf-8"?>
<!-- Generator: Adobe Illustrator 25.2.1, SVG Export Plug-In . SVG Version: 6.00 Build 0)  -->
<svg version="1.1" id="Layer_1" xmlns="http://www.w3.org/2000/svg" xmlns:xlink="http://www.w3.org/1999/xlink" x="0px" y="0px"
	 viewBox="0 0 188 20.2" style="enable-background:new 0 0 188 20.2;" xml:space="preserve">
<g class="st0">
	<path class="st1" d="M9.7,4.8c1.2,0,2.1,0.3,2.8,0.8c0.7,0.5,1,1.3,1,2.3c0,0.8-0.2,1.3-0.6,1.8c-0.4,0.4-0.9,0.7-1.6,0.9
		c0.4,0.1,0.7,0.2,1,0.3s0.6,0.4,0.8,0.6c0.2,0.3,0.4,0.6,0.5,0.9s0.2,0.8,0.2,1.2c0,0.5-0.1,1-0.3,1.4c-0.2,0.4-0.5,0.8-0.9,1.1
		c-0.4,0.3-0.8,0.5-1.4,0.7c-0.5,0.2-1.1,0.3-1.7,0.3H6.1V4.8H9.7z M7.9,10h1.4c0.3,0,0.6,0,0.9-0.1s0.6-0.2,0.8-0.3
		s0.4-0.3,0.5-0.6s0.2-0.6,0.2-1c0-0.6-0.2-1.1-0.6-1.4c-0.4-0.3-1-0.4-1.7-0.4H7.9V10z M7.9,15.7h1.5c0.4,0,0.7,0,1-0.1
		c0.3-0.1,0.6-0.2,0.8-0.4c0.2-0.2,0.4-0.4,0.6-0.7c0.1-0.3,0.2-0.6,0.2-1c0-0.4-0.1-0.7-0.3-1c-0.2-0.3-0.4-0.5-0.7-0.7
		c-0.3-0.2-0.6-0.3-1-0.4c-0.4-0.1-0.7-0.1-1.1-0.1H7.9V15.7z"/>
	<path class="st1" d="M16.4,4.8h7.3v1.5h-5.5V10h5v1.5h-5v4.2h5.6v1.5h-7.4V4.8z"/>
	<path class="st1" d="M26,4.8h1.5l5.5,7.8c0.2,0.3,0.4,0.6,0.6,0.9c0.2,0.3,0.4,0.6,0.5,0.9h0c0-0.5,0-0.9-0.1-1.4s0-0.9,0-1.4V4.8
		h1.7v12.3h-1.5l-5.5-7.7c-0.2-0.3-0.4-0.6-0.6-0.9s-0.4-0.7-0.6-1h0c0,0.5,0,1.1,0.1,1.6c0,0.5,0,1.1,0,1.6v6.4H26V4.8z"/>
</g>
<g class="st0">
	<path class="st2" d="M47.1,4.8v1.1l-6.7,9.8h6.7v1.5h-8.8v-1.3l6.5-9.6h-6.2V4.8H47.1z"/>
</g>
<g class="st0">
	<path class="st1" d="M48.9,16.1c0-0.3,0.1-0.6,0.3-0.9c0.2-0.2,0.5-0.4,0.8-0.4c0.3,0,0.6,0.1,0.8,0.4c0.2,0.2,0.3,0.5,0.3,0.9
		c0,0.4-0.1,0.7-0.3,0.9c-0.2,0.2-0.5,0.3-0.8,0.3c-0.3,0-0.6-0.1-0.8-0.3C49,16.8,48.9,16.5,48.9,16.1z"/>
	<path class="st1" d="M61.4,4.8v1.5h-3.8v10.8h-1.8V6.3h-3.7V4.8H61.4z"/>
	<path class="st1" d="M65.1,4.8h1.6l4.8,12.3h-1.8l-1.3-3.4h-5l-1.3,3.4h-1.8L65.1,4.8z M63.9,12.3h4L67,10.2
		c-0.2-0.6-0.4-1.1-0.6-1.6c-0.2-0.5-0.4-1.1-0.5-1.6h0c-0.2,0.5-0.4,1.1-0.6,1.6c-0.2,0.5-0.4,1.1-0.6,1.6L63.9,12.3z"/>
	<path class="st1" d="M79.7,4.8v1.5h-3.8v10.8h-1.8V6.3h-3.7V4.8H79.7z"/>
	<path class="st1" d="M89.7,4.8v1.5h-3.8v10.8h-1.8V6.3h-3.7V4.8H89.7z"/>
</g>
<g class="st0">
	<path class="st2" d="M99.6,4.6c0.8,0,1.6,0.1,2.3,0.4c0.7,0.3,1.3,0.7,1.8,1.2c0.5,0.5,0.9,1.2,1.2,2c0.3,0.8,0.4,1.7,0.4,2.8
		c0,1-0.1,1.9-0.4,2.7s-0.7,1.5-1.2,2c-0.5,0.5-1.1,0.9-1.8,1.2c-0.7,0.3-1.5,0.4-2.3,0.4c-0.8,0-1.6-0.1-2.3-0.4
		c-0.7-0.3-1.3-0.7-1.8-1.2c-0.5-0.5-0.9-1.2-1.2-2C94,13,93.8,12,93.8,11c0-1,0.1-1.9,0.4-2.7c0.3-0.8,0.7-1.5,1.2-2
		C96,5.7,96.6,5.3,97.3,5C98,4.8,98.8,4.6,99.6,4.6z M95.8,11c0,0.8,0.1,1.6,0.3,2.2c0.2,0.6,0.5,1.1,0.8,1.5
		c0.3,0.4,0.8,0.7,1.2,0.9c0.5,0.2,1,0.3,1.5,0.3c0.5,0,1-0.1,1.5-0.3c0.5-0.2,0.9-0.5,1.2-0.9c0.3-0.4,0.6-0.9,0.8-1.5
		c0.2-0.6,0.3-1.3,0.3-2.2c0-0.9-0.1-1.6-0.3-2.2c-0.2-0.6-0.5-1.1-0.8-1.5s-0.8-0.7-1.2-0.9s-1-0.3-1.5-0.3c-0.5,0-1,0.1-1.5,0.3
		s-0.9,0.5-1.2,0.9c-0.3,0.4-0.6,0.9-0.8,1.5C95.8,9.4,95.8,10.1,95.8,11z"/>
</g>
<g class="st0">
	<path class="st1" d="M112.9,4.6c0.8,0,1.6,0.1,2.3,0.4c0.7,0.3,1.3,0.7,1.8,1.2c0.5,0.5,0.9,1.2,1.2,2c0.3,0.8,0.4,1.7,0.4,2.8
		c0,1-0.1,1.9-0.4,2.7s-0.7,1.5-1.2,2c-0.5,0.5-1.1,0.9-1.8,1.2c-0.7,0.3-1.5,0.4-2.3,0.4s-1.6-0.1-2.3-0.4s-1.3-0.7-1.8-1.2
		c-0.5-0.5-0.9-1.2-1.2-2s-0.4-1.7-0.4-2.8c0-1,0.1-1.9,0.4-2.7c0.3-0.8,0.7-1.5,1.2-2c0.5-0.5,1.1-0.9,1.8-1.2
		C111.3,4.8,112.1,4.6,112.9,4.6z M109.1,11c0,0.8,0.1,1.6,0.3,2.2c0.2,0.6,0.5,1.1,0.8,1.5c0.3,0.4,0.8,0.7,1.2,0.9s1,0.3,1.5,0.3
		s1-0.1,1.5-0.3c0.5-0.2,0.9-0.5,1.2-0.9c0.3-0.4,0.6-0.9,0.8-1.5c0.2-0.6,0.3-1.3,0.3-2.2c0-0.9-0.1-1.6-0.3-2.2
		c-0.2-0.6-0.5-1.1-0.8-1.5c-0.3-0.4-0.8-0.7-1.2-0.9c-0.5-0.2-1-0.3-1.5-0.3c-0.5,0-1,0.1-1.5,0.3c-0.5,0.2-0.9,0.5-1.2,0.9
		c-0.3,0.4-0.6,0.9-0.8,1.5S109.1,10.1,109.1,11z"/>
	<path class="st1" d="M129.2,4.8c0.9,0,1.7,0.1,2.4,0.4c0.7,0.2,1.4,0.6,1.9,1.1s0.9,1.1,1.2,1.8c0.3,0.7,0.5,1.6,0.5,2.6
		c0,1.2-0.2,2.2-0.5,3c-0.4,0.8-0.8,1.5-1.5,2c-0.6,0.5-1.3,0.9-2.1,1.1c-0.8,0.2-1.7,0.3-2.5,0.3h-3.3V4.8H129.2z M127.1,15.7h1.3
		c0.6,0,1.2-0.1,1.8-0.2c0.6-0.1,1.1-0.4,1.6-0.8s0.8-0.9,1.1-1.5c0.3-0.6,0.4-1.5,0.4-2.5c0-0.7-0.1-1.3-0.3-1.9
		c-0.2-0.5-0.5-1-0.9-1.4c-0.4-0.4-0.8-0.7-1.4-0.9c-0.5-0.2-1.2-0.3-1.8-0.3h-1.8V15.7z"/>
</g>
<g class="st0">
	<path class="st2" d="M138.1,4.8h7.3v1.5h-5.5V10h5v1.5h-5v4.2h5.6v1.5h-7.4V4.8z"/>
</g>
<g class="st0">
	<path class="st1" d="M150.9,5.7c0.5,0,1.1,0,1.6,0.1c0.5,0.1,1,0.3,1.5,0.5l-0.4,1.4c-0.5-0.2-1-0.4-1.4-0.5C151.8,7,151.4,7,151,7
		c-0.7,0-1.2,0.1-1.6,0.4c-0.4,0.3-0.6,0.7-0.6,1.3c0,0.5,0.1,0.8,0.4,1.1c0.3,0.3,0.8,0.5,1.4,0.7l1.1,0.4c1,0.3,1.7,0.8,2.1,1.3
		s0.6,1.2,0.6,1.9c0,0.5-0.1,0.9-0.3,1.3c-0.2,0.4-0.5,0.7-0.8,1c-0.3,0.3-0.8,0.5-1.2,0.6c-0.5,0.2-1,0.2-1.6,0.2s-1.1-0.1-1.7-0.2
		s-1.2-0.3-1.7-0.6l0.4-1.4c0.5,0.3,1,0.4,1.5,0.6c0.5,0.1,1,0.2,1.5,0.2c0.6,0,1.2-0.2,1.6-0.5c0.4-0.3,0.7-0.7,0.7-1.3
		c0-0.2,0-0.4-0.1-0.6c-0.1-0.2-0.2-0.4-0.3-0.5s-0.4-0.3-0.6-0.5c-0.3-0.1-0.6-0.3-1-0.4l-1.1-0.4c-0.8-0.3-1.4-0.6-1.9-1.1
		c-0.4-0.5-0.7-1.1-0.7-1.9c0-1,0.3-1.8,1-2.4C148.7,5.9,149.7,5.7,150.9,5.7z"/>
	<path class="st1" d="M158.3,5.8v11.3h-1.6V5.8H158.3z"/>
	<path class="st1" d="M166,5.7c0.6,0,1.2,0,1.8,0.1c0.5,0.1,1,0.3,1.5,0.5l-0.4,1.3c-0.4-0.2-0.9-0.4-1.3-0.4S166.6,7,166.2,7
		c-0.5,0-1,0.1-1.5,0.2c-0.5,0.2-0.9,0.4-1.2,0.8c-0.4,0.4-0.6,0.8-0.9,1.4c-0.2,0.6-0.3,1.3-0.3,2.1c0,1.5,0.3,2.6,1,3.3
		c0.6,0.8,1.6,1.1,2.7,1.1c0.4,0,0.8,0,1.2-0.1c0.3,0,0.6-0.1,0.9-0.3v-3.1H166v-1.3h3.6v5.5c-0.5,0.2-1,0.4-1.6,0.5s-1.3,0.2-2,0.2
		c-0.8,0-1.5-0.1-2.1-0.4c-0.7-0.3-1.2-0.6-1.7-1.1c-0.5-0.5-0.9-1.1-1.2-1.8c-0.3-0.7-0.4-1.6-0.4-2.5c0-0.9,0.1-1.8,0.4-2.5
		s0.7-1.3,1.1-1.8c0.5-0.5,1.1-0.9,1.7-1.1C164.5,5.8,165.2,5.7,166,5.7z"/>
	<path class="st1" d="M172,5.8h1.4l5.1,7.2c0.2,0.3,0.4,0.5,0.5,0.8c0.2,0.3,0.3,0.5,0.5,0.8h0c0-0.4,0-0.8-0.1-1.3s0-0.8,0-1.3V5.8
		h1.6v11.3h-1.4l-5-7.1c-0.2-0.3-0.4-0.5-0.5-0.9c-0.2-0.3-0.4-0.6-0.5-0.9h0c0,0.5,0,1,0.1,1.5s0,1,0,1.5v5.9H172V5.8z"/>
</g>
<g>
</g>
<g>
</g>
<g>
</g>
<g>
</g>
<g>
</g>
<g>
</g>
</svg>
