<?xml version="1.0" encoding="UTF-8"?><svg xmlns="http://www.w3.org/2000/svg" viewBox="0 0 441.25 199.15"><defs><style>.d,.e{fill:#966e46;}.e{font-family:Algerian, Algerian;font-size:42.69px;stroke:#4d0000;stroke-miterlimit:10;}.f{fill:#fcefcf;}.g{fill:#4d0000;}</style></defs><g id="a"/><g id="b"><g id="c"><g><text class="e" transform="translate(47.87 89.65)"><tspan x="0" y="0">DO OR DO NOT</tspan></text><text class="e" transform="translate(76.37 129.19)"><tspan x="0" y="0">THERE IS NO TRY</tspan></text><g><path class="g" d="M440.03,87.28c0-43.09-130.58-44.03-130.58-87.04V24.17c0,43,130.58,43.94,130.58,87.04v-23.93Z"/><g><path class="f" d="M325.26,36.92c-.53,.86-1.01,1.74-1.09,2.23-.21-.58-.66-1.14-1.15-1.43,.41-.28,.65-.58,1.18-1.45l1.3-2.1c.53-.85,.69-1.2,.76-1.7l1.79,1.1c.87,.54,1.14,1.68,.6,2.55-.25,.4-.62,.68-1.05,.8,.08,.44,0,.9-.25,1.3-.53,.86-1.01,1.74-1.09,2.23-.21-.58-.66-1.14-1.15-1.43,.41-.28,.65-.58,1.18-1.45,.18-.28,.09-.67-.2-.85l-.53-.32-.32,.53Zm1.62-2.63l-.65,1.05,.53,.32c.29,.18,.67,.09,.85-.2,.18-.28,.09-.67-.2-.85l-.53-.32Z"/><path class="f" d="M337.59,40.03l-.51,1.12c.28,.13,1.28,.53,1.79,.54-.56,.29-1.04,.8-1.28,1.32-.35-.36-.74-.61-1.02-.74l-.51,1.12,1.37,.63c.28,.13,.51,.08,.69-.08,.1,.14,.19,.48,.04,.79-.25,.55-.81,.61-1.25,.41l-2.72-1.24c.36-.34,.57-.66,.99-1.58l1.03-2.25c.42-.91,.52-1.28,.54-1.79l2.72,1.24c.44,.2,.76,.66,.5,1.22-.14,.31-.45,.46-.63,.49,0-.25-.1-.45-.39-.58l-1.37-.63Z"/><path class="f" d="M347.8,50.29c-.31-.53-.86-.99-1.39-1.2,.35-.36,.53-.7,.89-1.64l1.11-2.88c-.29-.11-.74-.22-1.24-.21,.2-.53,.24-1.23,.04-1.83,.37,.35,1.35,.78,1.64,.89l1.41,.54c.46,.18,.8,.61,.58,1.19-.12,.32-.41,.49-.6,.52,0-.25-.13-.45-.42-.56l-.25-.1-1.11,2.88c-.36,.94-.66,1.9-.66,2.39Z"/><path class="f" d="M358.2,51.44c-.33,.96-.6,1.92-.57,2.41-.33-.52-.89-.96-1.43-1.15,.34-.37,.51-.71,.84-1.67l.81-2.33c.33-.94,.41-1.32,.37-1.83l1.98,.69c.97,.34,1.48,1.39,1.14,2.36-.15,.44-.46,.79-.85,1.01,.17,.41,.19,.88,.04,1.32-.33,.96-.6,1.92-.57,2.41-.33-.52-.89-.96-1.43-1.15,.34-.37,.51-.71,.84-1.67,.11-.31-.05-.67-.38-.79l-.58-.2-.2,.58Zm1.01-2.92l-.4,1.17,.58,.2c.33,.11,.67-.05,.79-.38,.11-.31-.05-.67-.38-.79l-.58-.2Z"/><path class="f" d="M371.34,51.19c.97,.32,1.5,1.37,1.18,2.34l-.85,2.58c-.32,.97-1.37,1.5-2.34,1.18-.97-.32-1.5-1.37-1.18-2.34l.85-2.58c.32-.97,1.37-1.5,2.34-1.18Zm-1.63,4.92c.33,.11,.67-.06,.78-.39l.85-2.58c.1-.32-.06-.67-.39-.78-.32-.1-.68,.08-.78,.39l-.85,2.58c-.11,.33,.08,.67,.39,.78Z"/><path class="f" d="M379.59,57.28c.93,0,1.8-.42,2.34-1.18-.03,.91,.46,1.8,1.18,2.34-.9,0-1.83,.42-2.34,1.18,.03-.93-.45-1.79-1.18-2.34Z"/><path class="f" d="M390.85,64.44c-.97-.33-1.48-1.39-1.15-2.35,.16-.48,.61-.59,.97-.46,.25,.08,.45,.27,.52,.54-.18,.07-.27,.17-.32,.32-.11,.33,.07,.68,.38,.78,.33,.11,.67-.06,.78-.38,.35-1.03-1.81-1.58-1.18-3.41,.32-.93,1.26-1.39,2.2-1.07,.85,.29,1.2,1.07,1.02,1.59-.22,.64-.78,.71-1.11,.6-.05-.02-.09-.03-.14-.06,.06-.07,.12-.16,.15-.25,.1-.28-.01-.61-.33-.71-.42-.14-.58,.17-.63,.31-.33,.96,1.82,1.55,1.18,3.41-.33,.97-1.39,1.48-2.35,1.15Z"/><path class="f" d="M402.12,69.01c-.32-.53-.87-.99-1.4-1.19,.35-.36,.53-.7,.88-1.65l1.09-2.89c-.29-.11-.74-.21-1.24-.2,.2-.53,.23-1.23,.03-1.83,.37,.35,1.36,.77,1.65,.88l1.41,.53c.46,.17,.8,.6,.58,1.18-.12,.32-.41,.49-.59,.53,0-.25-.14-.45-.42-.56l-.25-.1-1.09,2.89c-.36,.95-.65,1.9-.64,2.4Z"/><path class="f" d="M413.6,71.71c.28,.12,.51,.07,.69-.09,.1,.14,.19,.48,.06,.79-.24,.55-.8,.62-1.24,.43l-2.73-1.2c.35-.34,.56-.67,.97-1.6l.99-2.26c.4-.92,.75-1.86,.77-2.36,.28,.56,.81,1.03,1.33,1.26-.37,.35-.57,.68-.97,1.6l-1.24,2.82,1.38,.61Z"/><path class="f" d="M424.5,72.96l-.6,1.08c.27,.15,1.23,.63,1.74,.69-.59,.24-1.11,.71-1.38,1.2-.32-.39-.69-.67-.96-.82l-.6,1.08,1.31,.74c.27,.15,.5,.12,.69-.02,.09,.15,.15,.49-.02,.79-.3,.53-.86,.54-1.27,.3l-2.6-1.46c.39-.31,.63-.61,1.12-1.49l1.21-2.15c.49-.87,.62-1.24,.69-1.74l2.6,1.46c.42,.24,.7,.72,.4,1.26-.17,.3-.49,.42-.67,.43,.03-.25-.07-.46-.34-.61l-1.31-.74Z"/></g><path class="d" d="M309.45,0c14.39,42.22,108.98,45.35,128.65,76.23,2.96,4.64,2.81,8.8,1.93,10.81,0-36.56-112.09-42.31-129.74-74.45-2.19-3.98-2.87-10-.84-12.59Z"/><path class="d" d="M440.03,111.21c-14.39-42.22-108.98-45.35-128.65-76.23-2.96-4.64-2.81-8.8-1.93-10.81,0,36.56,112.09,42.31,129.74,74.45,2.19,3.98,2.87,10,.84,12.59Z"/><path class="d" d="M368.36,65.56c18.83,6.45,18.07,23.24,8.78,26.1,3.02,4.27,12.18,3.74,13.85-3.77,1.26-5.68-3.18-18.54-21.71-24.32l-.92,1.99Z"/><path class="d" d="M402.67,89.04c1.89-4.77-3.63-8.75-9.66-10.99,4.62,4.79,1.98,10.37,9.66,10.99Z"/></g><g><path class="g" d="M1.22,111.87c0,43.09,130.58,44.03,130.58,87.04v-23.93C131.8,131.97,1.22,131.03,1.22,87.94v23.93Z"/><g><path class="f" d="M23.63,123.58c.9,.49,1.23,1.61,.74,2.51l-1.29,2.39c-.49,.9-1.61,1.23-2.51,.74-.9-.49-1.23-1.61-.74-2.51l1.29-2.39c.49-.9,1.61-1.23,2.51-.74Zm-2.47,4.56c.3,.16,.67,.06,.84-.25l1.29-2.39c.16-.29,.06-.67-.25-.84-.29-.16-.68-.04-.84,.25l-1.29,2.39c-.16,.3-.04,.68,.25,.84Z"/><path class="f" d="M32.14,133.26c.28,.12,.51,.07,.69-.09,.1,.14,.2,.48,.06,.79-.24,.56-.79,.62-1.24,.43l-2.74-1.19c.35-.35,.56-.67,.96-1.6l.98-2.27c.4-.92,.74-1.86,.75-2.36,.29,.55,.82,1.03,1.34,1.25-.37,.35-.56,.68-.96,1.6l-1.22,2.83,1.38,.6Z"/><path class="f" d="M43.46,136.4c-.48,1.28-1.9,1.93-3.18,1.44l-1.39-.52c.35-.36,.53-.7,.88-1.65l.87-2.31c.35-.94,.44-1.31,.42-1.82l1.39,.52c1.28,.48,1.92,1.91,1.44,3.18l-.43,1.16Zm-.72-1.59c.24-.64-.09-1.35-.72-1.59l-1.3,3.47c.64,.24,1.35-.09,1.59-.72l.43-1.16Z"/><path class="f" d="M50.06,138.11c.92,0,1.81-.4,2.35-1.15-.04,.91,.43,1.81,1.15,2.35-.9,0-1.83,.4-2.35,1.15,.04-.92-.43-1.79-1.15-2.35Z"/><path class="f" d="M60.33,144.98c-.97-.32-1.5-1.37-1.18-2.34,.16-.48,.6-.59,.96-.47,.25,.08,.46,.27,.52,.54-.18,.07-.26,.17-.32,.32-.11,.33,.08,.68,.39,.78,.33,.11,.67-.06,.78-.39,.34-1.03-1.83-1.55-1.22-3.39,.31-.94,1.25-1.41,2.18-1.1,.86,.28,1.21,1.05,1.04,1.58-.21,.64-.77,.72-1.1,.61-.05-.02-.09-.03-.14-.06,.06-.07,.12-.16,.15-.25,.09-.28-.02-.6-.34-.71-.42-.14-.58,.17-.62,.31-.32,.96,1.83,1.53,1.22,3.39-.32,.97-1.37,1.5-2.34,1.18Z"/><path class="f" d="M70.8,147.13c.32,.1,.67-.07,.78-.39,.09-.28,.03-.51-.17-.67,.14-.12,.46-.25,.79-.14,.59,.19,.71,.74,.55,1.2-.32,.97-1.36,1.5-2.34,1.18-.97-.32-1.5-1.36-1.18-2.34l.85-2.58c.32-.97,1.36-1.5,2.34-1.18,.97,.32,1.5,1.36,1.18,2.34-.15,.46-.57,.83-1.16,.63-.33-.11-.5-.4-.55-.57,.25-.02,.44-.15,.54-.45,.1-.32-.08-.67-.39-.78-.33-.11-.68,.08-.78,.39l-.85,2.58c-.11,.33,.06,.67,.39,.78Z"/><path class="f" d="M80.94,144.5c.33,.53,.9,.96,1.44,1.14-.34,.38-.51,.73-.83,1.67l-.2,.58,1.17,.4,.2-.58c.32-.95,.59-1.91,.56-2.42,.33,.53,.9,.96,1.44,1.14-.34,.38-.51,.73-.83,1.67l-.8,2.34c-.33,.96-.6,1.92-.56,2.42-.34-.52-.9-.96-1.44-1.14,.32-.37,.5-.72,.83-1.67l.2-.58-1.17-.4-.2,.58c-.33,.96-.6,1.92-.56,2.42-.34-.52-.9-.96-1.44-1.14,.32-.37,.5-.71,.83-1.67l.8-2.34c.32-.95,.59-1.91,.56-2.42Z"/><path class="f" d="M93.11,149.28c.96,.35,1.45,1.42,1.1,2.38l-.94,2.55c-.35,.96-1.42,1.45-2.38,1.1-.96-.35-1.45-1.42-1.1-2.38l.94-2.55c.35-.96,1.42-1.45,2.38-1.1Zm-1.79,4.87c.32,.12,.67-.04,.79-.37l.94-2.55c.12-.31-.04-.67-.37-.79-.31-.12-.68,.05-.79,.37l-.94,2.55c-.12,.32,.05,.68,.37,.79Z"/><path class="f" d="M103.17,153.2c.95,.39,1.39,1.48,1,2.42l-1.05,2.51c-.39,.95-1.48,1.39-2.42,1-.95-.39-1.39-1.48-1-2.42l1.05-2.51c.39-.95,1.48-1.39,2.42-1Zm-2,4.78c.32,.13,.67-.01,.81-.33l1.05-2.51c.13-.31-.01-.67-.33-.81-.31-.13-.68,.02-.81,.33l-1.05,2.51c-.13,.32,.02,.68,.33,.81Z"/><path class="f" d="M111.83,162.74c.28,.14,.5,.1,.69-.05,.09,.14,.17,.49,.01,.79-.27,.54-.83,.58-1.26,.36l-2.67-1.35c.37-.32,.6-.64,1.05-1.54l1.11-2.2c.45-.89,.85-1.81,.89-2.32,.25,.57,.76,1.07,1.27,1.33-.39,.33-.6,.65-1.05,1.54l-1.39,2.76,1.35,.68Z"/></g><path class="d" d="M131.8,199.15C117.4,156.93,22.82,153.79,3.15,122.92c-2.96-4.64-2.81-8.8-1.93-10.81,0,36.56,112.09,42.31,129.74,74.45,2.19,3.98,2.87,10,.84,12.59Z"/><path class="d" d="M1.22,87.94c14.39,42.22,108.98,45.35,128.65,76.23,2.96,4.64,2.81,8.8,1.93,10.81,0-36.56-112.09-42.31-129.74-74.45-2.19-3.98-2.87-10-.84-12.59Z"/><path class="d" d="M72.89,133.58c-18.83-6.45-18.07-23.24-8.78-26.1-3.02-4.27-12.18-3.74-13.85,3.77-1.26,5.68,3.18,18.54,21.71,24.32l.92-1.99Z"/><path class="d" d="M38.58,110.1c-1.89,4.77,3.63,8.75,9.66,10.99-4.62-4.79-1.98-10.37-9.66-10.99Z"/></g><g><path class="d" d="M32,58.68s2.9-3.03,6.52-3.07c3.62-.05,6.6,2.9,6.6,2.9,0,0-2.9,3.03-6.52,3.07-3.62,.05-6.6-2.9-6.6-2.9Z"/><path class="d" d="M52.93,43.84s-3.82,1.73-5.06,5.14c-1.24,3.4,.55,7.19,.55,7.19,0,0,3.82-1.73,5.06-5.14,1.24-3.4-.55-7.19-.55-7.19Z"/><path class="d" d="M46.39,56.79c-4.1-4.55-9.56-6.54-9.56-6.54-3.47-4.9-3.01-11.19-3.01-11.19,0,0,6.09,1.65,9.56,6.54,0,0,.08,5.81,3.01,11.19Z"/></g><g><path class="d" d="M420.93,126.69s-1.11,4.04-4.27,5.81c-3.16,1.77-7.19,.6-7.19,.6,0,0,1.11-4.04,4.27-5.81,3.16-1.77,7.19-.6,7.19-.6Z"/><path class="d" d="M409.6,149.71s2.53-3.34,2-6.93c-.53-3.59-3.91-6.06-3.91-6.06,0,0-2.53,3.34-2,6.93,.53,3.59,3.91,6.06,3.91,6.06Z"/><path class="d" d="M409.18,135.2c5.77,2.05,11.52,1.2,11.52,1.2,5.39,2.65,7.98,8.4,7.98,8.4,0,0-6.14,1.45-11.52-1.2,0,0-2.84-5.07-7.98-8.4Z"/></g></g></g></g></svg>