<?xml version="1.0" encoding="utf-8"?>
<!-- Generator: Adobe Illustrator 25.2.1, SVG Export Plug-In . SVG Version: 6.00 Build 0)  -->
<svg version="1.1" id="Layer_1" xmlns="http://www.w3.org/2000/svg" xmlns:xlink="http://www.w3.org/1999/xlink" x="0px" y="0px"
	 viewBox="0 0 441.2 199.1" style="enable-background:new 0 0 441.2 199.1;" xml:space="preserve">
<style type="text/css">
	.st0{enable-background:new    ;}
	.st1{fill:#966E46;}
	.st2{fill:none;stroke:#4D0000;stroke-miterlimit:10;}
	.st3{fill:#4D0000;}
	.st4{fill:#FCEFCF;}
</style>
<g id="a">
</g>
<g id="b">
	<g id="c">
		<g>
			<g class="st0">
				<path class="st1" d="M51.2,89.6V59.1h10.5c2.4,0,4.2,0.1,5.4,0.4c1.8,0.4,3.2,1.1,4.5,2.2c1.6,1.4,2.8,3.1,3.6,5.2
					c0.8,2.1,1.2,4.5,1.2,7.3c0,2.3-0.3,4.4-0.8,6.2c-0.5,1.8-1.2,3.3-2.1,4.5c-0.8,1.2-1.8,2.1-2.8,2.8c-1,0.7-2.2,1.2-3.6,1.5
					c-1.4,0.3-3.1,0.5-4.9,0.5H51.2z M55.2,86h6.5c2,0,3.6-0.2,4.7-0.6s2.1-0.9,2.7-1.6c1-1,1.7-2.2,2.2-3.9
					c0.5-1.6,0.8-3.6,0.8-5.9c0-3.2-0.5-5.7-1.6-7.4s-2.3-2.9-3.8-3.4c-1.1-0.4-2.8-0.6-5.2-0.6h-6.4V86z"/>
				<path class="st1" d="M80.8,74.8c0-5.1,1.4-9,4.1-11.9c2.7-2.9,6.2-4.3,10.5-4.3c2.8,0,5.4,0.7,7.6,2c2.3,1.3,4,3.2,5.2,5.6
					c1.2,2.4,1.8,5.1,1.8,8.2c0,3.1-0.6,5.9-1.9,8.3c-1.3,2.4-3,4.3-5.3,5.6s-4.8,1.9-7.4,1.9c-2.9,0-5.4-0.7-7.7-2.1
					c-2.3-1.4-4-3.3-5.1-5.7C81.3,80,80.8,77.4,80.8,74.8z M84.9,74.8c0,3.7,1,6.6,3,8.7c2,2.1,4.5,3.2,7.5,3.2c3,0,5.5-1.1,7.5-3.2
					c2-2.1,2.9-5.2,2.9-9.1c0-2.5-0.4-4.7-1.3-6.5c-0.8-1.9-2.1-3.3-3.7-4.3c-1.6-1-3.4-1.5-5.5-1.5c-2.9,0-5.3,1-7.4,2.9
					C86,66.9,84.9,70.2,84.9,74.8z"/>
				<path class="st1" d="M125.8,74.8c0-5.1,1.4-9,4.1-11.9c2.7-2.9,6.2-4.3,10.5-4.3c2.8,0,5.4,0.7,7.6,2c2.3,1.3,4,3.2,5.2,5.6
					c1.2,2.4,1.8,5.1,1.8,8.2c0,3.1-0.6,5.9-1.9,8.3c-1.3,2.4-3,4.3-5.3,5.6s-4.8,1.9-7.4,1.9c-2.9,0-5.4-0.7-7.7-2.1
					c-2.3-1.4-4-3.3-5.1-5.7C126.4,80,125.8,77.4,125.8,74.8z M130,74.8c0,3.7,1,6.6,3,8.7c2,2.1,4.5,3.2,7.5,3.2
					c3,0,5.5-1.1,7.5-3.2c2-2.1,2.9-5.2,2.9-9.1c0-2.5-0.4-4.7-1.3-6.5c-0.8-1.9-2.1-3.3-3.7-4.3c-1.6-1-3.4-1.5-5.5-1.5
					c-2.9,0-5.3,1-7.4,2.9C131,66.9,130,70.2,130,74.8z"/>
				<path class="st1" d="M160.3,89.6V59.1h13.5c2.7,0,4.8,0.3,6.2,0.8c1.4,0.5,2.5,1.5,3.4,2.9s1.3,2.9,1.3,4.6c0,2.2-0.7,4-2.1,5.5
					c-1.4,1.5-3.6,2.4-6.5,2.8c1.1,0.5,1.9,1,2.4,1.5c1.2,1.1,2.3,2.4,3.4,4.1l5.3,8.3h-5.1l-4-6.4c-1.2-1.8-2.2-3.2-2.9-4.2
					c-0.8-1-1.4-1.7-2.1-2s-1.2-0.7-1.8-0.8c-0.5-0.1-1.2-0.1-2.3-0.1h-4.7v13.6H160.3z M164.4,72.6h8.7c1.8,0,3.3-0.2,4.3-0.6
					s1.8-1,2.4-1.8c0.5-0.8,0.8-1.8,0.8-2.7c0-1.4-0.5-2.6-1.6-3.6c-1-0.9-2.7-1.4-5-1.4h-9.7V72.6z"/>
				<path class="st1" d="M203,89.6V59.1h10.5c2.4,0,4.2,0.1,5.4,0.4c1.8,0.4,3.2,1.1,4.5,2.2c1.6,1.4,2.8,3.1,3.6,5.2
					c0.8,2.1,1.2,4.5,1.2,7.3c0,2.3-0.3,4.4-0.8,6.2c-0.5,1.8-1.2,3.3-2.1,4.5c-0.8,1.2-1.8,2.1-2.8,2.8c-1,0.7-2.2,1.2-3.6,1.5
					c-1.4,0.3-3.1,0.5-4.9,0.5H203z M207,86h6.5c2,0,3.6-0.2,4.7-0.6s2.1-0.9,2.7-1.6c1-1,1.7-2.2,2.2-3.9c0.5-1.6,0.8-3.6,0.8-5.9
					c0-3.2-0.5-5.7-1.6-7.4s-2.3-2.9-3.8-3.4c-1.1-0.4-2.8-0.6-5.2-0.6H207V86z"/>
				<path class="st1" d="M232.6,74.8c0-5.1,1.4-9,4.1-11.9s6.2-4.3,10.5-4.3c2.8,0,5.4,0.7,7.6,2c2.3,1.3,4,3.2,5.2,5.6
					c1.2,2.4,1.8,5.1,1.8,8.2c0,3.1-0.6,5.9-1.9,8.3c-1.3,2.4-3,4.3-5.3,5.6s-4.8,1.9-7.4,1.9c-2.9,0-5.4-0.7-7.7-2.1
					c-2.3-1.4-4-3.3-5.1-5.7S232.6,77.4,232.6,74.8z M236.7,74.8c0,3.7,1,6.6,3,8.7s4.5,3.2,7.5,3.2c3,0,5.5-1.1,7.5-3.2
					c2-2.1,2.9-5.2,2.9-9.1c0-2.5-0.4-4.7-1.3-6.5c-0.8-1.9-2.1-3.3-3.7-4.3c-1.6-1-3.4-1.5-5.5-1.5c-2.9,0-5.3,1-7.4,2.9
					C237.8,66.9,236.7,70.2,236.7,74.8z"/>
				<path class="st1" d="M278.8,89.6V59.1h4.1l16.1,24v-24h3.9v30.6h-4.1l-16.1-24v24H278.8z"/>
				<path class="st1" d="M308.5,74.8c0-5.1,1.4-9,4.1-11.9s6.2-4.3,10.5-4.3c2.8,0,5.4,0.7,7.6,2c2.3,1.3,4,3.2,5.2,5.6
					c1.2,2.4,1.8,5.1,1.8,8.2c0,3.1-0.6,5.9-1.9,8.3c-1.3,2.4-3,4.3-5.3,5.6s-4.8,1.9-7.4,1.9c-2.9,0-5.4-0.7-7.7-2.1
					c-2.3-1.4-4-3.3-5.1-5.7S308.5,77.4,308.5,74.8z M312.6,74.8c0,3.7,1,6.6,3,8.7s4.5,3.2,7.5,3.2c3,0,5.5-1.1,7.5-3.2
					c2-2.1,2.9-5.2,2.9-9.1c0-2.5-0.4-4.7-1.3-6.5c-0.8-1.9-2.1-3.3-3.7-4.3c-1.6-1-3.4-1.5-5.5-1.5c-2.9,0-5.3,1-7.4,2.9
					C313.7,66.9,312.6,70.2,312.6,74.8z"/>
				<path class="st1" d="M350.7,89.6v-27h-10.1v-3.6h24.2v3.6h-10.1v27H350.7z"/>
			</g>
			<g class="st0">
				<path class="st2" d="M51.2,89.6V59.1h10.5c2.4,0,4.2,0.1,5.4,0.4c1.8,0.4,3.2,1.1,4.5,2.2c1.6,1.4,2.8,3.1,3.6,5.2
					c0.8,2.1,1.2,4.5,1.2,7.3c0,2.3-0.3,4.4-0.8,6.2c-0.5,1.8-1.2,3.3-2.1,4.5c-0.8,1.2-1.8,2.1-2.8,2.8c-1,0.7-2.2,1.2-3.6,1.5
					c-1.4,0.3-3.1,0.5-4.9,0.5H51.2z M55.2,86h6.5c2,0,3.6-0.2,4.7-0.6s2.1-0.9,2.7-1.6c1-1,1.7-2.2,2.2-3.9
					c0.5-1.6,0.8-3.6,0.8-5.9c0-3.2-0.5-5.7-1.6-7.4s-2.3-2.9-3.8-3.4c-1.1-0.4-2.8-0.6-5.2-0.6h-6.4V86z"/>
				<path class="st2" d="M80.8,74.8c0-5.1,1.4-9,4.1-11.9c2.7-2.9,6.2-4.3,10.5-4.3c2.8,0,5.4,0.7,7.6,2c2.3,1.3,4,3.2,5.2,5.6
					c1.2,2.4,1.8,5.1,1.8,8.2c0,3.1-0.6,5.9-1.9,8.3c-1.3,2.4-3,4.3-5.3,5.6s-4.8,1.9-7.4,1.9c-2.9,0-5.4-0.7-7.7-2.1
					c-2.3-1.4-4-3.3-5.1-5.7C81.3,80,80.8,77.4,80.8,74.8z M84.9,74.8c0,3.7,1,6.6,3,8.7c2,2.1,4.5,3.2,7.5,3.2c3,0,5.5-1.1,7.5-3.2
					c2-2.1,2.9-5.2,2.9-9.1c0-2.5-0.4-4.7-1.3-6.5c-0.8-1.9-2.1-3.3-3.7-4.3c-1.6-1-3.4-1.5-5.5-1.5c-2.9,0-5.3,1-7.4,2.9
					C86,66.9,84.9,70.2,84.9,74.8z"/>
				<path class="st2" d="M125.8,74.8c0-5.1,1.4-9,4.1-11.9c2.7-2.9,6.2-4.3,10.5-4.3c2.8,0,5.4,0.7,7.6,2c2.3,1.3,4,3.2,5.2,5.6
					c1.2,2.4,1.8,5.1,1.8,8.2c0,3.1-0.6,5.9-1.9,8.3c-1.3,2.4-3,4.3-5.3,5.6s-4.8,1.9-7.4,1.9c-2.9,0-5.4-0.7-7.7-2.1
					c-2.3-1.4-4-3.3-5.1-5.7C126.4,80,125.8,77.4,125.8,74.8z M130,74.8c0,3.7,1,6.6,3,8.7c2,2.1,4.5,3.2,7.5,3.2
					c3,0,5.5-1.1,7.5-3.2c2-2.1,2.9-5.2,2.9-9.1c0-2.5-0.4-4.7-1.3-6.5c-0.8-1.9-2.1-3.3-3.7-4.3c-1.6-1-3.4-1.5-5.5-1.5
					c-2.9,0-5.3,1-7.4,2.9C131,66.9,130,70.2,130,74.8z"/>
				<path class="st2" d="M160.3,89.6V59.1h13.5c2.7,0,4.8,0.3,6.2,0.8c1.4,0.5,2.5,1.5,3.4,2.9s1.3,2.9,1.3,4.6c0,2.2-0.7,4-2.1,5.5
					c-1.4,1.5-3.6,2.4-6.5,2.8c1.1,0.5,1.9,1,2.4,1.5c1.2,1.1,2.3,2.4,3.4,4.1l5.3,8.3h-5.1l-4-6.4c-1.2-1.8-2.2-3.2-2.9-4.2
					c-0.8-1-1.4-1.7-2.1-2s-1.2-0.7-1.8-0.8c-0.5-0.1-1.2-0.1-2.3-0.1h-4.7v13.6H160.3z M164.4,72.6h8.7c1.8,0,3.3-0.2,4.3-0.6
					s1.8-1,2.4-1.8c0.5-0.8,0.8-1.8,0.8-2.7c0-1.4-0.5-2.6-1.6-3.6c-1-0.9-2.7-1.4-5-1.4h-9.7V72.6z"/>
				<path class="st2" d="M203,89.6V59.1h10.5c2.4,0,4.2,0.1,5.4,0.4c1.8,0.4,3.2,1.1,4.5,2.2c1.6,1.4,2.8,3.1,3.6,5.2
					c0.8,2.1,1.2,4.5,1.2,7.3c0,2.3-0.3,4.4-0.8,6.2c-0.5,1.8-1.2,3.3-2.1,4.5c-0.8,1.2-1.8,2.1-2.8,2.8c-1,0.7-2.2,1.2-3.6,1.5
					c-1.4,0.3-3.1,0.5-4.9,0.5H203z M207,86h6.5c2,0,3.6-0.2,4.7-0.6s2.1-0.9,2.7-1.6c1-1,1.7-2.2,2.2-3.9c0.5-1.6,0.8-3.6,0.8-5.9
					c0-3.2-0.5-5.7-1.6-7.4s-2.3-2.9-3.8-3.4c-1.1-0.4-2.8-0.6-5.2-0.6H207V86z"/>
				<path class="st2" d="M232.6,74.8c0-5.1,1.4-9,4.1-11.9s6.2-4.3,10.5-4.3c2.8,0,5.4,0.7,7.6,2c2.3,1.3,4,3.2,5.2,5.6
					c1.2,2.4,1.8,5.1,1.8,8.2c0,3.1-0.6,5.9-1.9,8.3c-1.3,2.4-3,4.3-5.3,5.6s-4.8,1.9-7.4,1.9c-2.9,0-5.4-0.7-7.7-2.1
					c-2.3-1.4-4-3.3-5.1-5.7S232.6,77.4,232.6,74.8z M236.7,74.8c0,3.7,1,6.6,3,8.7s4.5,3.2,7.5,3.2c3,0,5.5-1.1,7.5-3.2
					c2-2.1,2.9-5.2,2.9-9.1c0-2.5-0.4-4.7-1.3-6.5c-0.8-1.9-2.1-3.3-3.7-4.3c-1.6-1-3.4-1.5-5.5-1.5c-2.9,0-5.3,1-7.4,2.9
					C237.8,66.9,236.7,70.2,236.7,74.8z"/>
				<path class="st2" d="M278.8,89.6V59.1h4.1l16.1,24v-24h3.9v30.6h-4.1l-16.1-24v24H278.8z"/>
				<path class="st2" d="M308.5,74.8c0-5.1,1.4-9,4.1-11.9s6.2-4.3,10.5-4.3c2.8,0,5.4,0.7,7.6,2c2.3,1.3,4,3.2,5.2,5.6
					c1.2,2.4,1.8,5.1,1.8,8.2c0,3.1-0.6,5.9-1.9,8.3c-1.3,2.4-3,4.3-5.3,5.6s-4.8,1.9-7.4,1.9c-2.9,0-5.4-0.7-7.7-2.1
					c-2.3-1.4-4-3.3-5.1-5.7S308.5,77.4,308.5,74.8z M312.6,74.8c0,3.7,1,6.6,3,8.7s4.5,3.2,7.5,3.2c3,0,5.5-1.1,7.5-3.2
					c2-2.1,2.9-5.2,2.9-9.1c0-2.5-0.4-4.7-1.3-6.5c-0.8-1.9-2.1-3.3-3.7-4.3c-1.6-1-3.4-1.5-5.5-1.5c-2.9,0-5.3,1-7.4,2.9
					C313.7,66.9,312.6,70.2,312.6,74.8z"/>
				<path class="st2" d="M350.7,89.6v-27h-10.1v-3.6h24.2v3.6h-10.1v27H350.7z"/>
			</g>
			<g class="st0">
				<path class="st1" d="M87.4,129.2v-27H77.4v-3.6h24.2v3.6H91.5v27H87.4z"/>
				<path class="st1" d="M105.9,129.2V98.6h4v12.5h15.9V98.6h4v30.6h-4v-14.4h-15.9v14.4H105.9z"/>
				<path class="st1" d="M136.7,129.2V98.6h22.1v3.6h-18.1v9.4h16.9v3.6h-16.9v10.4h18.8v3.6H136.7z"/>
				<path class="st1" d="M165.1,129.2V98.6h13.5c2.7,0,4.8,0.3,6.2,0.8c1.4,0.5,2.5,1.5,3.4,2.9s1.3,2.9,1.3,4.6
					c0,2.2-0.7,4-2.1,5.5s-3.6,2.4-6.5,2.8c1.1,0.5,1.9,1,2.4,1.5c1.2,1.1,2.3,2.4,3.4,4.1l5.3,8.3H187l-4-6.4
					c-1.2-1.8-2.2-3.2-2.9-4.2c-0.8-1-1.4-1.7-2.1-2c-0.6-0.4-1.2-0.7-1.8-0.8c-0.5-0.1-1.2-0.1-2.3-0.1h-4.7v13.6H165.1z
					 M169.1,112.1h8.7c1.8,0,3.3-0.2,4.3-0.6c1-0.4,1.8-1,2.4-1.8s0.8-1.8,0.8-2.7c0-1.4-0.5-2.6-1.6-3.6c-1-0.9-2.7-1.4-5-1.4h-9.7
					V112.1z"/>
				<path class="st1" d="M196,129.2V98.6h22.1v3.6H200v9.4h16.9v3.6H200v10.4h18.8v3.6H196z"/>
				<path class="st1" d="M236.9,129.2V98.6h4v30.6H236.9z"/>
				<path class="st1" d="M246.7,119.4l3.8-0.3c0.2,1.5,0.6,2.8,1.3,3.8s1.7,1.8,3.1,2.4c1.4,0.6,3,0.9,4.7,0.9
					c1.5,0,2.9-0.2,4.1-0.7c1.2-0.5,2.1-1.1,2.6-1.9c0.6-0.8,0.9-1.7,0.9-2.6c0-1-0.3-1.8-0.8-2.5c-0.6-0.7-1.5-1.3-2.8-1.8
					c-0.8-0.3-2.6-0.8-5.4-1.5c-2.8-0.7-4.8-1.3-5.9-1.9c-1.5-0.8-2.5-1.7-3.3-2.8c-0.7-1.1-1.1-2.4-1.1-3.8c0-1.5,0.4-3,1.3-4.3
					c0.9-1.3,2.2-2.4,3.8-3.1s3.6-1,5.6-1c2.3,0,4.3,0.4,6,1.1c1.7,0.7,3.1,1.8,4,3.2c0.9,1.4,1.4,3,1.5,4.8l-3.9,0.3
					c-0.2-1.9-0.9-3.4-2.1-4.4s-3-1.5-5.3-1.5c-2.4,0-4.2,0.4-5.3,1.3c-1.1,0.9-1.7,2-1.7,3.2c0,1.1,0.4,2,1.2,2.7
					c0.8,0.7,2.8,1.4,6.1,2.2c3.3,0.7,5.5,1.4,6.8,1.9c1.8,0.8,3.1,1.9,3.9,3.1c0.8,1.3,1.3,2.7,1.3,4.3c0,1.6-0.5,3.2-1.4,4.6
					s-2.3,2.6-4,3.4s-3.7,1.2-5.9,1.2c-2.8,0-5.1-0.4-7-1.2c-1.9-0.8-3.3-2-4.4-3.6S246.7,121.4,246.7,119.4z"/>
				<path class="st1" d="M288.4,129.2V98.6h4.1l16.1,24v-24h3.9v30.6h-4.1l-16.1-24v24H288.4z"/>
				<path class="st1" d="M318,114.3c0-5.1,1.4-9,4.1-11.9c2.7-2.9,6.2-4.3,10.5-4.3c2.8,0,5.4,0.7,7.6,2c2.3,1.3,4,3.2,5.2,5.6
					c1.2,2.4,1.8,5.1,1.8,8.2c0,3.1-0.6,5.9-1.9,8.3c-1.3,2.4-3,4.3-5.3,5.6s-4.8,1.9-7.4,1.9c-2.9,0-5.4-0.7-7.7-2.1
					c-2.3-1.4-4-3.3-5.1-5.7S318,117,318,114.3z M322.2,114.4c0,3.7,1,6.6,3,8.7s4.5,3.2,7.5,3.2c3,0,5.5-1.1,7.5-3.2
					c2-2.1,2.9-5.2,2.9-9.1c0-2.5-0.4-4.7-1.3-6.5s-2.1-3.3-3.7-4.3c-1.6-1-3.4-1.5-5.5-1.5c-2.9,0-5.3,1-7.4,2.9
					C323.2,106.5,322.2,109.8,322.2,114.4z"/>
				<path class="st1" d="M371.3,129.2v-27h-10.1v-3.6h24.2v3.6h-10.1v27H371.3z"/>
				<path class="st1" d="M389.7,129.2V98.6h13.5c2.7,0,4.8,0.3,6.2,0.8c1.4,0.5,2.5,1.5,3.4,2.9s1.3,2.9,1.3,4.6
					c0,2.2-0.7,4-2.1,5.5s-3.6,2.4-6.5,2.8c1.1,0.5,1.9,1,2.4,1.5c1.2,1.1,2.3,2.4,3.4,4.1l5.3,8.3h-5.1l-4-6.4
					c-1.2-1.8-2.2-3.2-2.9-4.2c-0.8-1-1.4-1.7-2.1-2c-0.6-0.4-1.2-0.7-1.8-0.8c-0.5-0.1-1.2-0.1-2.3-0.1h-4.7v13.6H389.7z
					 M393.7,112.1h8.7c1.8,0,3.3-0.2,4.3-0.6c1-0.4,1.8-1,2.4-1.8s0.8-1.8,0.8-2.7c0-1.4-0.5-2.6-1.6-3.6c-1-0.9-2.7-1.4-5-1.4h-9.7
					V112.1z"/>
				<path class="st1" d="M428.3,129.2v-12.9l-11.8-17.6h4.9l6,9.2c1.1,1.7,2.1,3.4,3.1,5.2c0.9-1.6,2-3.4,3.3-5.4l5.9-9h4.7
					l-12.2,17.6v12.9H428.3z"/>
			</g>
			<g class="st0">
				<path class="st2" d="M87.4,129.2v-27H77.4v-3.6h24.2v3.6H91.5v27H87.4z"/>
				<path class="st2" d="M105.9,129.2V98.6h4v12.5h15.9V98.6h4v30.6h-4v-14.4h-15.9v14.4H105.9z"/>
				<path class="st2" d="M136.7,129.2V98.6h22.1v3.6h-18.1v9.4h16.9v3.6h-16.9v10.4h18.8v3.6H136.7z"/>
				<path class="st2" d="M165.1,129.2V98.6h13.5c2.7,0,4.8,0.3,6.2,0.8c1.4,0.5,2.5,1.5,3.4,2.9s1.3,2.9,1.3,4.6
					c0,2.2-0.7,4-2.1,5.5s-3.6,2.4-6.5,2.8c1.1,0.5,1.9,1,2.4,1.5c1.2,1.1,2.3,2.4,3.4,4.1l5.3,8.3H187l-4-6.4
					c-1.2-1.8-2.2-3.2-2.9-4.2c-0.8-1-1.4-1.7-2.1-2c-0.6-0.4-1.2-0.7-1.8-0.8c-0.5-0.1-1.2-0.1-2.3-0.1h-4.7v13.6H165.1z
					 M169.1,112.1h8.7c1.8,0,3.3-0.2,4.3-0.6c1-0.4,1.8-1,2.4-1.8s0.8-1.8,0.8-2.7c0-1.4-0.5-2.6-1.6-3.6c-1-0.9-2.7-1.4-5-1.4h-9.7
					V112.1z"/>
				<path class="st2" d="M196,129.2V98.6h22.1v3.6H200v9.4h16.9v3.6H200v10.4h18.8v3.6H196z"/>
				<path class="st2" d="M236.9,129.2V98.6h4v30.6H236.9z"/>
				<path class="st2" d="M246.7,119.4l3.8-0.3c0.2,1.5,0.6,2.8,1.3,3.8s1.7,1.8,3.1,2.4c1.4,0.6,3,0.9,4.7,0.9
					c1.5,0,2.9-0.2,4.1-0.7c1.2-0.5,2.1-1.1,2.6-1.9c0.6-0.8,0.9-1.7,0.9-2.6c0-1-0.3-1.8-0.8-2.5c-0.6-0.7-1.5-1.3-2.8-1.8
					c-0.8-0.3-2.6-0.8-5.4-1.5c-2.8-0.7-4.8-1.3-5.9-1.9c-1.5-0.8-2.5-1.7-3.3-2.8c-0.7-1.1-1.1-2.4-1.1-3.8c0-1.5,0.4-3,1.3-4.3
					c0.9-1.3,2.2-2.4,3.8-3.1s3.6-1,5.6-1c2.3,0,4.3,0.4,6,1.1c1.7,0.7,3.1,1.8,4,3.2c0.9,1.4,1.4,3,1.5,4.8l-3.9,0.3
					c-0.2-1.9-0.9-3.4-2.1-4.4s-3-1.5-5.3-1.5c-2.4,0-4.2,0.4-5.3,1.3c-1.1,0.9-1.7,2-1.7,3.2c0,1.1,0.4,2,1.2,2.7
					c0.8,0.7,2.8,1.4,6.1,2.2c3.3,0.7,5.5,1.4,6.8,1.9c1.8,0.8,3.1,1.9,3.9,3.1c0.8,1.3,1.3,2.7,1.3,4.3c0,1.6-0.5,3.2-1.4,4.6
					s-2.3,2.6-4,3.4s-3.7,1.2-5.9,1.2c-2.8,0-5.1-0.4-7-1.2c-1.9-0.8-3.3-2-4.4-3.6S246.7,121.4,246.7,119.4z"/>
				<path class="st2" d="M288.4,129.2V98.6h4.1l16.1,24v-24h3.9v30.6h-4.1l-16.1-24v24H288.4z"/>
				<path class="st2" d="M318,114.3c0-5.1,1.4-9,4.1-11.9c2.7-2.9,6.2-4.3,10.5-4.3c2.8,0,5.4,0.7,7.6,2c2.3,1.3,4,3.2,5.2,5.6
					c1.2,2.4,1.8,5.1,1.8,8.2c0,3.1-0.6,5.9-1.9,8.3c-1.3,2.4-3,4.3-5.3,5.6s-4.8,1.9-7.4,1.9c-2.9,0-5.4-0.7-7.7-2.1
					c-2.3-1.4-4-3.3-5.1-5.7S318,117,318,114.3z M322.2,114.4c0,3.7,1,6.6,3,8.7s4.5,3.2,7.5,3.2c3,0,5.5-1.1,7.5-3.2
					c2-2.1,2.9-5.2,2.9-9.1c0-2.5-0.4-4.7-1.3-6.5s-2.1-3.3-3.7-4.3c-1.6-1-3.4-1.5-5.5-1.5c-2.9,0-5.3,1-7.4,2.9
					C323.2,106.5,322.2,109.8,322.2,114.4z"/>
				<path class="st2" d="M371.3,129.2v-27h-10.1v-3.6h24.2v3.6h-10.1v27H371.3z"/>
				<path class="st2" d="M389.7,129.2V98.6h13.5c2.7,0,4.8,0.3,6.2,0.8c1.4,0.5,2.5,1.5,3.4,2.9s1.3,2.9,1.3,4.6
					c0,2.2-0.7,4-2.1,5.5s-3.6,2.4-6.5,2.8c1.1,0.5,1.9,1,2.4,1.5c1.2,1.1,2.3,2.4,3.4,4.1l5.3,8.3h-5.1l-4-6.4
					c-1.2-1.8-2.2-3.2-2.9-4.2c-0.8-1-1.4-1.7-2.1-2c-0.6-0.4-1.2-0.7-1.8-0.8c-0.5-0.1-1.2-0.1-2.3-0.1h-4.7v13.6H389.7z
					 M393.7,112.1h8.7c1.8,0,3.3-0.2,4.3-0.6c1-0.4,1.8-1,2.4-1.8s0.8-1.8,0.8-2.7c0-1.4-0.5-2.6-1.6-3.6c-1-0.9-2.7-1.4-5-1.4h-9.7
					V112.1z"/>
				<path class="st2" d="M428.3,129.2v-12.9l-11.8-17.6h4.9l6,9.2c1.1,1.7,2.1,3.4,3.1,5.2c0.9-1.6,2-3.4,3.3-5.4l5.9-9h4.7
					l-12.2,17.6v12.9H428.3z"/>
			</g>
			<g>
				<path class="st3" d="M440,87.3c0-43.1-130.6-44-130.6-87v23.9c0,43,130.6,43.9,130.6,87L440,87.3L440,87.3z"/>
				<g>
					<path class="st4" d="M325.3,36.9c-0.5,0.9-1,1.7-1.1,2.2c-0.2-0.6-0.7-1.1-1.1-1.4c0.4-0.3,0.6-0.6,1.2-1.5l1.3-2.1
						c0.5-0.8,0.7-1.2,0.8-1.7l1.8,1.1c0.9,0.5,1.1,1.7,0.6,2.5c-0.2,0.4-0.6,0.7-1,0.8c0.1,0.4,0,0.9-0.2,1.3
						c-0.5,0.9-1,1.7-1.1,2.2c-0.2-0.6-0.7-1.1-1.1-1.4c0.4-0.3,0.6-0.6,1.2-1.5c0.2-0.3,0.1-0.7-0.2-0.8l-0.5-0.3L325.3,36.9
						L325.3,36.9z M326.9,34.3l-0.6,1l0.5,0.3c0.3,0.2,0.7,0.1,0.9-0.2c0.2-0.3,0.1-0.7-0.2-0.8L326.9,34.3z"/>
					<path class="st4" d="M337.6,40l-0.5,1.1c0.3,0.1,1.3,0.5,1.8,0.5c-0.6,0.3-1,0.8-1.3,1.3c-0.4-0.4-0.7-0.6-1-0.7l-0.5,1.1
						l1.4,0.6c0.3,0.1,0.5,0.1,0.7-0.1c0.1,0.1,0.2,0.5,0,0.8c-0.2,0.5-0.8,0.6-1.2,0.4l-2.7-1.2c0.4-0.3,0.6-0.7,1-1.6l1-2.2
						c0.4-0.9,0.5-1.3,0.5-1.8l2.7,1.2c0.4,0.2,0.8,0.7,0.5,1.2c-0.1,0.3-0.5,0.5-0.6,0.5c0-0.2-0.1-0.5-0.4-0.6L337.6,40L337.6,40z
						"/>
					<path class="st4" d="M347.8,50.3c-0.3-0.5-0.9-1-1.4-1.2c0.4-0.4,0.5-0.7,0.9-1.6l1.1-2.9c-0.3-0.1-0.7-0.2-1.2-0.2
						c0.2-0.5,0.2-1.2,0-1.8c0.4,0.3,1.4,0.8,1.6,0.9l1.4,0.5c0.5,0.2,0.8,0.6,0.6,1.2c-0.1,0.3-0.4,0.5-0.6,0.5
						c0-0.2-0.1-0.5-0.4-0.6l-0.2-0.1l-1.1,2.9C348.1,48.8,347.8,49.8,347.8,50.3L347.8,50.3z"/>
					<path class="st4" d="M358.2,51.4c-0.3,1-0.6,1.9-0.6,2.4c-0.3-0.5-0.9-1-1.4-1.2c0.3-0.4,0.5-0.7,0.8-1.7l0.8-2.3
						c0.3-0.9,0.4-1.3,0.4-1.8l2,0.7c1,0.3,1.5,1.4,1.1,2.4c-0.1,0.4-0.5,0.8-0.9,1c0.2,0.4,0.2,0.9,0,1.3c-0.3,1-0.6,1.9-0.6,2.4
						c-0.3-0.5-0.9-1-1.4-1.2c0.3-0.4,0.5-0.7,0.8-1.7c0.1-0.3,0-0.7-0.4-0.8l-0.6-0.2L358.2,51.4L358.2,51.4z M359.2,48.5l-0.4,1.2
						l0.6,0.2c0.3,0.1,0.7,0,0.8-0.4c0.1-0.3,0-0.7-0.4-0.8L359.2,48.5L359.2,48.5z"/>
					<path class="st4" d="M371.3,51.2c1,0.3,1.5,1.4,1.2,2.3l-0.9,2.6c-0.3,1-1.4,1.5-2.3,1.2s-1.5-1.4-1.2-2.3l0.9-2.6
						C369.3,51.4,370.4,50.9,371.3,51.2z M369.7,56.1c0.3,0.1,0.7-0.1,0.8-0.4l0.9-2.6c0.1-0.3-0.1-0.7-0.4-0.8
						c-0.3-0.1-0.7,0.1-0.8,0.4l-0.9,2.6C369.2,55.7,369.4,56,369.7,56.1z"/>
					<path class="st4" d="M379.6,57.3c0.9,0,1.8-0.4,2.3-1.2c0,0.9,0.5,1.8,1.2,2.3c-0.9,0-1.8,0.4-2.3,1.2
						C380.8,58.7,380.3,57.8,379.6,57.3z"/>
					<path class="st4" d="M390.9,64.4c-1-0.3-1.5-1.4-1.1-2.3c0.2-0.5,0.6-0.6,1-0.5c0.2,0.1,0.5,0.3,0.5,0.5
						c-0.2,0.1-0.3,0.2-0.3,0.3c-0.1,0.3,0.1,0.7,0.4,0.8c0.3,0.1,0.7-0.1,0.8-0.4c0.4-1-1.8-1.6-1.2-3.4c0.3-0.9,1.3-1.4,2.2-1.1
						c0.9,0.3,1.2,1.1,1,1.6c-0.2,0.6-0.8,0.7-1.1,0.6c0,0-0.1,0-0.1-0.1c0.1-0.1,0.1-0.2,0.1-0.2c0.1-0.3,0-0.6-0.3-0.7
						c-0.4-0.1-0.6,0.2-0.6,0.3c-0.3,1,1.8,1.5,1.2,3.4C392.9,64.3,391.8,64.8,390.9,64.4L390.9,64.4z"/>
					<path class="st4" d="M402.1,69c-0.3-0.5-0.9-1-1.4-1.2c0.4-0.4,0.5-0.7,0.9-1.7l1.1-2.9c-0.3-0.1-0.7-0.2-1.2-0.2
						c0.2-0.5,0.2-1.2,0-1.8c0.4,0.3,1.4,0.8,1.6,0.9l1.4,0.5c0.5,0.2,0.8,0.6,0.6,1.2c-0.1,0.3-0.4,0.5-0.6,0.5
						c0-0.2-0.1-0.5-0.4-0.6l-0.2-0.1l-1.1,2.9C402.4,67.5,402.1,68.5,402.1,69L402.1,69z"/>
					<path class="st4" d="M413.6,71.7c0.3,0.1,0.5,0.1,0.7-0.1c0.1,0.1,0.2,0.5,0.1,0.8c-0.2,0.6-0.8,0.6-1.2,0.4l-2.7-1.2
						c0.4-0.3,0.6-0.7,1-1.6l1-2.3c0.4-0.9,0.8-1.9,0.8-2.4c0.3,0.6,0.8,1,1.3,1.3c-0.4,0.3-0.6,0.7-1,1.6l-1.2,2.8L413.6,71.7
						L413.6,71.7z"/>
					<path class="st4" d="M424.5,73l-0.6,1.1c0.3,0.2,1.2,0.6,1.7,0.7c-0.6,0.2-1.1,0.7-1.4,1.2c-0.3-0.4-0.7-0.7-1-0.8l-0.6,1.1
						l1.3,0.7c0.3,0.2,0.5,0.1,0.7,0c0.1,0.2,0.1,0.5,0,0.8c-0.3,0.5-0.9,0.5-1.3,0.3l-2.6-1.5c0.4-0.3,0.6-0.6,1.1-1.5l1.2-2.2
						c0.5-0.9,0.6-1.2,0.7-1.7l2.6,1.5c0.4,0.2,0.7,0.7,0.4,1.3c-0.2,0.3-0.5,0.4-0.7,0.4c0-0.2-0.1-0.5-0.3-0.6L424.5,73L424.5,73z
						"/>
				</g>
				<path class="st1" d="M309.5,0c14.4,42.2,109,45.3,128.6,76.2c3,4.6,2.8,8.8,1.9,10.8c0-36.6-112.1-42.3-129.7-74.4
					C308.1,8.6,307.4,2.6,309.5,0L309.5,0z"/>
				<path class="st1" d="M440,111.2C425.6,69,331,65.9,311.4,35c-3-4.6-2.8-8.8-1.9-10.8c0,36.6,112.1,42.3,129.7,74.4
					C441.4,102.6,442.1,108.6,440,111.2z"/>
				<path class="st1" d="M368.4,65.6c18.8,6.4,18.1,23.2,8.8,26.1c3,4.3,12.2,3.7,13.9-3.8c1.3-5.7-3.2-18.5-21.7-24.3L368.4,65.6z"
					/>
				<path class="st1" d="M402.7,89c1.9-4.8-3.6-8.8-9.7-11C397.6,82.8,395,88.4,402.7,89z"/>
			</g>
			<g>
				<path class="st3" d="M1.2,111.9c0,43.1,130.6,44,130.6,87V175c0-43-130.6-44-130.6-87V111.9z"/>
				<g>
					<path class="st4" d="M23.6,123.6c0.9,0.5,1.2,1.6,0.7,2.5l-1.3,2.4c-0.5,0.9-1.6,1.2-2.5,0.7c-0.9-0.5-1.2-1.6-0.7-2.5l1.3-2.4
						C21.6,123.4,22.7,123.1,23.6,123.6L23.6,123.6z M21.2,128.1c0.3,0.2,0.7,0.1,0.8-0.2l1.3-2.4c0.2-0.3,0.1-0.7-0.2-0.8
						c-0.3-0.2-0.7,0-0.8,0.2l-1.3,2.4C20.8,127.6,20.9,128,21.2,128.1z"/>
					<path class="st4" d="M32.1,133.3c0.3,0.1,0.5,0.1,0.7-0.1c0.1,0.1,0.2,0.5,0.1,0.8c-0.2,0.6-0.8,0.6-1.2,0.4l-2.7-1.2
						c0.4-0.4,0.6-0.7,1-1.6l1-2.3c0.4-0.9,0.7-1.9,0.8-2.4c0.3,0.6,0.8,1,1.3,1.2c-0.4,0.4-0.6,0.7-1,1.6l-1.2,2.8L32.1,133.3
						L32.1,133.3z"/>
					<path class="st4" d="M43.5,136.4c-0.5,1.3-1.9,1.9-3.2,1.4l-1.4-0.5c0.3-0.4,0.5-0.7,0.9-1.6l0.9-2.3c0.3-0.9,0.4-1.3,0.4-1.8
						l1.4,0.5c1.3,0.5,1.9,1.9,1.4,3.2C43.9,135.2,43.5,136.4,43.5,136.4z M42.7,134.8c0.2-0.6-0.1-1.4-0.7-1.6l-1.3,3.5
						c0.6,0.2,1.3-0.1,1.6-0.7L42.7,134.8z"/>
					<path class="st4" d="M50.1,138.1c0.9,0,1.8-0.4,2.3-1.1c0,0.9,0.4,1.8,1.2,2.4c-0.9,0-1.8,0.4-2.3,1.1
						C51.3,139.5,50.8,138.7,50.1,138.1z"/>
					<path class="st4" d="M60.3,145c-1-0.3-1.5-1.4-1.2-2.3c0.2-0.5,0.6-0.6,1-0.5c0.2,0.1,0.5,0.3,0.5,0.5
						c-0.2,0.1-0.3,0.2-0.3,0.3c-0.1,0.3,0.1,0.7,0.4,0.8c0.3,0.1,0.7-0.1,0.8-0.4c0.3-1-1.8-1.6-1.2-3.4c0.3-0.9,1.2-1.4,2.2-1.1
						c0.9,0.3,1.2,1.1,1,1.6c-0.2,0.6-0.8,0.7-1.1,0.6c0,0-0.1,0-0.1-0.1c0.1-0.1,0.1-0.2,0.2-0.2c0.1-0.3,0-0.6-0.3-0.7
						c-0.4-0.1-0.6,0.2-0.6,0.3c-0.3,1,1.8,1.5,1.2,3.4C62.3,144.8,61.3,145.3,60.3,145L60.3,145z"/>
					<path class="st4" d="M70.8,147.1c0.3,0.1,0.7-0.1,0.8-0.4c0.1-0.3,0-0.5-0.2-0.7c0.1-0.1,0.5-0.2,0.8-0.1
						c0.6,0.2,0.7,0.7,0.6,1.2c-0.3,1-1.4,1.5-2.3,1.2c-1-0.3-1.5-1.4-1.2-2.3l0.8-2.6c0.3-1,1.4-1.5,2.3-1.2c1,0.3,1.5,1.4,1.2,2.3
						c-0.2,0.5-0.6,0.8-1.2,0.6c-0.3-0.1-0.5-0.4-0.6-0.6c0.2,0,0.4-0.1,0.5-0.4c0.1-0.3-0.1-0.7-0.4-0.8c-0.3-0.1-0.7,0.1-0.8,0.4
						l-0.8,2.6C70.3,146.7,70.5,147,70.8,147.1z"/>
					<path class="st4" d="M80.9,144.5c0.3,0.5,0.9,1,1.4,1.1c-0.3,0.4-0.5,0.7-0.8,1.7l-0.2,0.6l1.2,0.4l0.2-0.6
						c0.3-0.9,0.6-1.9,0.6-2.4c0.3,0.5,0.9,1,1.4,1.1c-0.3,0.4-0.5,0.7-0.8,1.7l-0.8,2.3c-0.3,1-0.6,1.9-0.6,2.4
						c-0.3-0.5-0.9-1-1.4-1.1c0.3-0.4,0.5-0.7,0.8-1.7l0.2-0.6l-1.2-0.4l-0.2,0.6c-0.3,1-0.6,1.9-0.6,2.4c-0.3-0.5-0.9-1-1.4-1.1
						c0.3-0.4,0.5-0.7,0.8-1.7l0.8-2.3C80.7,146,81,145,80.9,144.5z"/>
					<path class="st4" d="M93.1,149.3c1,0.4,1.4,1.4,1.1,2.4l-0.9,2.6c-0.3,1-1.4,1.4-2.4,1.1c-1-0.4-1.4-1.4-1.1-2.4l0.9-2.6
						C91.1,149.4,92.2,148.9,93.1,149.3z M91.3,154.1c0.3,0.1,0.7,0,0.8-0.4l0.9-2.6c0.1-0.3,0-0.7-0.4-0.8
						c-0.3-0.1-0.7,0.1-0.8,0.4l-0.9,2.6C90.8,153.7,91,154,91.3,154.1z"/>
					<path class="st4" d="M103.2,153.2c0.9,0.4,1.4,1.5,1,2.4l-1.1,2.5c-0.4,0.9-1.5,1.4-2.4,1c-0.9-0.4-1.4-1.5-1-2.4l1.1-2.5
						C101.1,153.2,102.2,152.8,103.2,153.2z M101.2,158c0.3,0.1,0.7,0,0.8-0.3l1.1-2.5c0.1-0.3,0-0.7-0.3-0.8
						c-0.3-0.1-0.7,0-0.8,0.3l-1.1,2.5C100.7,157.5,100.9,157.8,101.2,158z"/>
					<path class="st4" d="M111.8,162.7c0.3,0.1,0.5,0.1,0.7-0.1c0.1,0.1,0.2,0.5,0,0.8c-0.3,0.5-0.8,0.6-1.3,0.4l-2.7-1.4
						c0.4-0.3,0.6-0.6,1.1-1.5l1.1-2.2c0.4-0.9,0.8-1.8,0.9-2.3c0.2,0.6,0.8,1.1,1.3,1.3c-0.4,0.3-0.6,0.6-1.1,1.5l-1.4,2.8
						L111.8,162.7L111.8,162.7z"/>
				</g>
				<path class="st1" d="M131.8,199.1c-14.4-42.2-109-45.4-128.7-76.2c-3-4.6-2.8-8.8-1.9-10.8c0,36.6,112.1,42.3,129.7,74.4
					C133.2,190.5,133.8,196.6,131.8,199.1z"/>
				<path class="st1" d="M1.2,87.9c14.4,42.2,109,45.4,128.6,76.2c3,4.6,2.8,8.8,1.9,10.8c0-36.6-112.1-42.3-129.7-74.4
					C-0.1,96.6-0.8,90.5,1.2,87.9L1.2,87.9z"/>
				<path class="st1" d="M72.9,133.6c-18.8-6.4-18.1-23.2-8.8-26.1c-3-4.3-12.2-3.7-13.8,3.8c-1.3,5.7,3.2,18.5,21.7,24.3
					L72.9,133.6z"/>
				<path class="st1" d="M38.6,110.1c-1.9,4.8,3.6,8.8,9.7,11C43.6,116.3,46.3,110.7,38.6,110.1z"/>
			</g>
			<g>
				<path class="st1" d="M32,58.7c0,0,2.9-3,6.5-3.1c3.6,0,6.6,2.9,6.6,2.9s-2.9,3-6.5,3.1C35,61.6,32,58.7,32,58.7z"/>
				<path class="st1" d="M52.9,43.8c0,0-3.8,1.7-5.1,5.1c-1.2,3.4,0.5,7.2,0.5,7.2s3.8-1.7,5.1-5.1C54.7,47.6,52.9,43.8,52.9,43.8z"
					/>
				<path class="st1" d="M46.4,56.8c-4.1-4.5-9.6-6.5-9.6-6.5c-3.5-4.9-3-11.2-3-11.2s6.1,1.7,9.6,6.5
					C43.4,45.6,43.5,51.4,46.4,56.8z"/>
			</g>
			<g>
				<path class="st1" d="M420.9,126.7c0,0-1.1,4-4.3,5.8s-7.2,0.6-7.2,0.6s1.1-4,4.3-5.8C416.9,125.5,420.9,126.7,420.9,126.7z"/>
				<path class="st1" d="M409.6,149.7c0,0,2.5-3.3,2-6.9s-3.9-6.1-3.9-6.1s-2.5,3.3-2,6.9S409.6,149.7,409.6,149.7z"/>
				<path class="st1" d="M409.2,135.2c5.8,2.1,11.5,1.2,11.5,1.2c5.4,2.6,8,8.4,8,8.4s-6.1,1.4-11.5-1.2
					C417.2,143.6,414.3,138.5,409.2,135.2z"/>
			</g>
		</g>
	</g>
</g>
</svg>
