<?xml version="1.0" encoding="utf-8"?>
<!-- Generator: Adobe Illustrator 25.2.1, SVG Export Plug-In . SVG Version: 6.00 Build 0)  -->
<svg version="1.1" baseProfile="full" width="1000" xmlns="http://www.w3.org/2000/svg">
<style type="text/css">
	.st0{fill:#FFFFFF;}
	.st1{fill:#BE1E2D;}
</style>
<g>
	<path class="st0" d="M4.17,5.29c1.21,0,2.14,0.26,2.82,0.79C7.66,6.61,8,7.39,8,8.41c0,0.76-0.21,1.35-0.62,1.77
		c-0.42,0.42-0.94,0.72-1.57,0.89c0.36,0.06,0.69,0.18,1,0.34s0.58,0.38,0.81,0.64c0.23,0.26,0.41,0.57,0.55,0.93s0.2,0.76,0.2,1.21
		c0,0.51-0.11,0.98-0.33,1.4c-0.22,0.42-0.52,0.79-0.9,1.09s-0.84,0.54-1.37,0.71c-0.53,0.17-1.1,0.25-1.73,0.25h-3.5V5.29H4.17z
		 M2.31,10.44h1.44c0.32,0,0.63-0.03,0.92-0.08s0.55-0.15,0.78-0.29s0.4-0.34,0.54-0.58s0.2-0.56,0.2-0.95
		c0-0.63-0.21-1.08-0.62-1.37C5.15,6.89,4.6,6.74,3.9,6.74h-1.6V10.44z M2.31,16.19h1.54c0.36,0,0.7-0.04,1.02-0.11
		c0.32-0.07,0.6-0.19,0.85-0.36c0.24-0.17,0.44-0.4,0.59-0.68c0.15-0.28,0.22-0.62,0.22-1.03c0-0.4-0.09-0.74-0.26-1.01
		c-0.17-0.27-0.4-0.49-0.68-0.66c-0.28-0.17-0.6-0.29-0.96-0.36c-0.36-0.07-0.72-0.11-1.08-0.11H2.31V16.19z"/>
	<path class="st0" d="M11.02,5.29h7.31v1.49h-5.54v3.7h5.04v1.47h-5.04v4.19h5.6v1.49h-7.36V5.29z"/>
	<path class="st0" d="M20.8,5.29h1.54l5.52,7.82c0.21,0.29,0.4,0.58,0.6,0.88c0.19,0.3,0.37,0.59,0.52,0.88h0.04
		c-0.03-0.46-0.04-0.91-0.06-1.37c-0.01-0.46-0.02-0.92-0.02-1.37V5.29h1.73v12.34h-1.54l-5.46-7.72c-0.19-0.27-0.39-0.58-0.6-0.93
		s-0.4-0.69-0.58-1.03h-0.04c0.03,0.55,0.04,1.1,0.06,1.65c0.01,0.55,0.02,1.1,0.02,1.65v6.39H20.8V5.29z"/>
	<path class="st1" d="M41.59,5.29v1.08l-6.65,9.82h6.75v1.45h-8.85v-1.27l6.54-9.62h-6.25V5.29H41.59z"/>
	<path class="st0" d="M43.36,16.58c0-0.34,0.12-0.63,0.35-0.86c0.23-0.24,0.51-0.35,0.83-0.35c0.32,0,0.59,0.12,0.82,0.35
		c0.22,0.24,0.34,0.52,0.34,0.86c0,0.38-0.11,0.68-0.34,0.9c-0.22,0.22-0.5,0.33-0.82,0.33c-0.32,0-0.6-0.11-0.83-0.33
		C43.48,17.26,43.36,16.96,43.36,16.58z"/>
	<path class="st0" d="M55.99,5.29v1.53h-3.79v10.82h-1.77V6.82h-3.71V5.29H55.99z"/>
	<path class="st0" d="M59.9,5.29h1.58l4.83,12.34h-1.85l-1.33-3.43h-4.98l-1.31,3.43h-1.83L59.9,5.29z M58.63,12.78h3.98l-0.81-2.14
		c-0.22-0.56-0.42-1.1-0.6-1.63s-0.36-1.06-0.54-1.61h-0.04C60.45,7.96,60.26,8.49,60.07,9c-0.19,0.51-0.4,1.06-0.62,1.65
		L58.63,12.78z"/>
	<path class="st0" d="M74.59,5.29v1.53H70.8v10.82h-1.77V6.82h-3.71V5.29H74.59z"/>
	<path class="st0" d="M84.76,5.29v1.53h-3.79v10.82H79.2V6.82h-3.71V5.29H84.76z"/>
	<path class="st1" d="M91.34,5.12c0.82,0,1.58,0.13,2.27,0.4c0.69,0.27,1.29,0.67,1.8,1.2c0.51,0.53,0.9,1.19,1.18,1.98
		c0.28,0.79,0.42,1.71,0.42,2.77c0,1.03-0.15,1.94-0.44,2.73s-0.7,1.45-1.21,1.99c-0.51,0.54-1.12,0.94-1.82,1.21
		s-1.46,0.41-2.28,0.41s-1.58-0.13-2.27-0.4c-0.69-0.27-1.29-0.67-1.8-1.2c-0.51-0.53-0.9-1.19-1.18-1.98
		c-0.28-0.79-0.42-1.71-0.42-2.77c0-1.03,0.15-1.94,0.44-2.73c0.29-0.79,0.7-1.45,1.21-1.99s1.12-0.94,1.82-1.21
		C89.76,5.25,90.52,5.12,91.34,5.12z M87.51,11.46c0,0.84,0.1,1.56,0.3,2.17s0.47,1.12,0.82,1.53c0.35,0.41,0.75,0.71,1.22,0.9
		c0.47,0.2,0.96,0.29,1.49,0.29s1.02-0.1,1.47-0.29s0.85-0.5,1.19-0.9c0.34-0.4,0.61-0.91,0.8-1.53s0.29-1.34,0.29-2.17
		c0-0.86-0.1-1.6-0.3-2.21c-0.2-0.61-0.47-1.12-0.82-1.52c-0.35-0.4-0.75-0.69-1.22-0.88c-0.47-0.19-0.96-0.28-1.49-0.28
		c-0.53,0-1.02,0.1-1.48,0.29c-0.46,0.2-0.86,0.5-1.19,0.9c-0.33,0.4-0.6,0.91-0.79,1.53C87.61,9.9,87.51,10.63,87.51,11.46z"/>
	<path class="st0" d="M104.68,5.12c0.82,0,1.58,0.13,2.27,0.4c0.69,0.27,1.29,0.67,1.8,1.2c0.51,0.53,0.9,1.19,1.18,1.98
		c0.28,0.79,0.42,1.71,0.42,2.77c0,1.03-0.15,1.94-0.44,2.73s-0.7,1.45-1.21,1.99c-0.51,0.54-1.12,0.94-1.82,1.21
		c-0.7,0.27-1.46,0.41-2.28,0.41s-1.58-0.13-2.27-0.4s-1.29-0.67-1.8-1.2c-0.51-0.53-0.9-1.19-1.18-1.98s-0.42-1.71-0.42-2.77
		c0-1.03,0.15-1.94,0.44-2.73c0.29-0.79,0.7-1.45,1.21-1.99s1.12-0.94,1.82-1.21C103.1,5.25,103.86,5.12,104.68,5.12z M100.85,11.46
		c0,0.84,0.1,1.56,0.3,2.17c0.2,0.61,0.47,1.12,0.82,1.53c0.35,0.41,0.75,0.71,1.22,0.9s0.96,0.29,1.49,0.29s1.02-0.1,1.47-0.29
		c0.45-0.2,0.85-0.5,1.19-0.9c0.34-0.4,0.61-0.91,0.8-1.53c0.19-0.61,0.29-1.34,0.29-2.17c0-0.86-0.1-1.6-0.3-2.21
		c-0.2-0.61-0.47-1.12-0.82-1.52c-0.35-0.4-0.75-0.69-1.22-0.88s-0.96-0.28-1.49-0.28c-0.53,0-1.02,0.1-1.48,0.29
		c-0.46,0.2-0.86,0.5-1.19,0.9c-0.33,0.4-0.6,0.91-0.79,1.53S100.85,10.63,100.85,11.46z"/>
	<path class="st0" d="M121.29,5.29c0.86,0,1.65,0.12,2.38,0.37c0.73,0.25,1.36,0.62,1.89,1.11c0.53,0.49,0.95,1.1,1.25,1.84
		c0.3,0.74,0.45,1.6,0.45,2.58c0,1.19-0.18,2.19-0.54,3.02c-0.36,0.82-0.84,1.49-1.45,2c-0.61,0.51-1.31,0.88-2.12,1.1
		c-0.8,0.22-1.65,0.33-2.55,0.33h-3.27V5.29H121.29z M119.12,16.15h1.33c0.62,0,1.22-0.07,1.81-0.21c0.59-0.14,1.11-0.39,1.57-0.76
		s0.82-0.88,1.11-1.52c0.28-0.64,0.42-1.46,0.42-2.47c0-0.71-0.1-1.33-0.31-1.88c-0.21-0.55-0.5-1.01-0.88-1.38
		c-0.38-0.37-0.85-0.66-1.39-0.85c-0.54-0.2-1.15-0.29-1.82-0.29h-1.83V16.15z"/>
	<path class="st1" d="M129.85,5.29h7.31v1.49h-5.54v3.7h5.04v1.47h-5.04v4.19h5.6v1.49h-7.37V5.29z"/>
	<path class="st0" d="M143.04,5.12c0.59,0,1.16,0.05,1.71,0.15c0.55,0.1,1.1,0.28,1.63,0.54l-0.42,1.49
		c-0.55-0.26-1.05-0.45-1.49-0.56c-0.44-0.11-0.89-0.17-1.36-0.17c-0.73,0-1.31,0.16-1.73,0.49c-0.42,0.33-0.63,0.78-0.63,1.37
		c0,0.5,0.16,0.9,0.47,1.2c0.31,0.3,0.83,0.56,1.55,0.78l1.21,0.39c1.1,0.35,1.88,0.83,2.34,1.44c0.45,0.61,0.68,1.29,0.68,2.05
		c0,0.54-0.11,1.02-0.32,1.46c-0.21,0.44-0.51,0.81-0.88,1.12c-0.38,0.31-0.82,0.54-1.34,0.71c-0.51,0.16-1.08,0.25-1.69,0.25
		s-1.24-0.06-1.88-0.17c-0.63-0.11-1.27-0.32-1.89-0.62l0.42-1.47c0.55,0.27,1.09,0.48,1.62,0.61c0.53,0.13,1.08,0.2,1.65,0.2
		c0.69,0,1.28-0.16,1.77-0.49c0.49-0.33,0.73-0.81,0.73-1.45c0-0.24-0.04-0.45-0.11-0.66c-0.07-0.2-0.19-0.39-0.37-0.58
		c-0.17-0.18-0.41-0.35-0.7-0.51c-0.29-0.16-0.67-0.31-1.12-0.45l-1.21-0.39c-0.88-0.29-1.56-0.68-2.04-1.18
		c-0.47-0.5-0.71-1.17-0.71-2.02c0-1.08,0.35-1.94,1.05-2.58C140.69,5.43,141.71,5.12,143.04,5.12z"/>
	<path class="st0" d="M151.27,5.29v12.34h-1.77V5.29H151.27z"/>
	<path class="st0" d="M159.77,5.12c0.71,0,1.34,0.05,1.91,0.16s1.1,0.29,1.59,0.55l-0.42,1.41c-0.47-0.22-0.94-0.38-1.39-0.49
		c-0.46-0.1-0.95-0.16-1.47-0.16c-0.56,0-1.1,0.08-1.62,0.25s-0.96,0.45-1.36,0.83c-0.39,0.39-0.7,0.89-0.93,1.51
		c-0.23,0.62-0.35,1.39-0.35,2.3c0,1.58,0.35,2.78,1.06,3.61c0.71,0.82,1.7,1.23,2.98,1.23c0.49,0,0.91-0.03,1.26-0.08
		c0.35-0.05,0.7-0.14,1.03-0.27v-3.43h-2.29v-1.41h3.94v5.96c-0.51,0.21-1.08,0.38-1.71,0.52c-0.63,0.14-1.37,0.21-2.23,0.21
		c-0.83,0-1.61-0.14-2.34-0.41c-0.72-0.27-1.36-0.68-1.89-1.21c-0.54-0.54-0.96-1.2-1.27-1.98c-0.31-0.78-0.46-1.69-0.46-2.72
		c0-1.03,0.15-1.95,0.45-2.74c0.3-0.8,0.71-1.46,1.24-2c0.53-0.54,1.15-0.94,1.88-1.21C158.12,5.25,158.91,5.12,159.77,5.12z"/>
	<path class="st0" d="M166.52,5.29h1.54l5.52,7.82c0.2,0.29,0.4,0.58,0.6,0.88c0.19,0.3,0.37,0.59,0.52,0.88h0.04
		c-0.03-0.46-0.04-0.91-0.06-1.37c-0.01-0.46-0.02-0.92-0.02-1.37V5.29h1.73v12.34h-1.54l-5.46-7.72c-0.19-0.27-0.39-0.58-0.6-0.93
		s-0.4-0.69-0.58-1.03h-0.04c0.03,0.55,0.04,1.1,0.06,1.65c0.01,0.55,0.02,1.1,0.02,1.65v6.39h-1.73V5.29z"/>
</g>
</svg>
