<?xml version="1.0" encoding="utf-8"?>
<!-- Generator: Adobe Illustrator 25.2.1, SVG Export Plug-In . SVG Version: 6.00 Build 0)  -->
<svg version="1.1" id="Layer_1" xmlns="http://www.w3.org/2000/svg" xmlns:xlink="http://www.w3.org/1999/xlink" x="0px" y="0px"
	 viewBox="0 0 177 21" style="enable-background:new 0 0 177 21;" xml:space="preserve">
<style type="text/css">
	.st0{enable-background:new    ;}
	.st1{fill:#BE1E2D;}
</style>
<g class="st0">
	<path d="M4.2,5.3c1.2,0,2.1,0.3,2.8,0.8c0.7,0.5,1,1.3,1,2.3c0,0.8-0.2,1.3-0.6,1.8c-0.4,0.4-0.9,0.7-1.6,0.9
		c0.4,0.1,0.7,0.2,1,0.3s0.6,0.4,0.8,0.6C7.8,12.3,8,12.6,8.2,13s0.2,0.8,0.2,1.2c0,0.5-0.1,1-0.3,1.4c-0.2,0.4-0.5,0.8-0.9,1.1
		c-0.4,0.3-0.8,0.5-1.4,0.7c-0.5,0.2-1.1,0.3-1.7,0.3H0.5V5.3H4.2z M2.3,10.4h1.4c0.3,0,0.6,0,0.9-0.1s0.6-0.2,0.8-0.3
		S5.9,9.7,6,9.5s0.2-0.6,0.2-1c0-0.6-0.2-1.1-0.6-1.4c-0.4-0.3-1-0.4-1.7-0.4H2.3V10.4z M2.3,16.2h1.5c0.4,0,0.7,0,1-0.1
		c0.3-0.1,0.6-0.2,0.8-0.4C6,15.5,6.1,15.3,6.3,15c0.1-0.3,0.2-0.6,0.2-1c0-0.4-0.1-0.7-0.3-1c-0.2-0.3-0.4-0.5-0.7-0.7
		c-0.3-0.2-0.6-0.3-1-0.4c-0.4-0.1-0.7-0.1-1.1-0.1H2.3V16.2z"/>
	<path d="M10.9,5.3h7.3v1.5h-5.5v3.7h5V12h-5v4.2h5.6v1.5h-7.4V5.3z"/>
	<path d="M20.5,5.3H22l5.5,7.8c0.2,0.3,0.4,0.6,0.6,0.9c0.2,0.3,0.4,0.6,0.5,0.9h0c0-0.5,0-0.9-0.1-1.4s0-0.9,0-1.4V5.3h1.7v12.3
		h-1.5l-5.5-7.7C23.2,9.6,23,9.3,22.8,9s-0.4-0.7-0.6-1h0c0,0.5,0,1.1,0.1,1.6c0,0.5,0,1.1,0,1.6v6.4h-1.7V5.3z"/>
</g>
<g class="st0">
	<path class="st1" d="M41.6,5.3v1.1l-6.7,9.8h6.7v1.5h-8.8v-1.3l6.5-9.6h-6.2V5.3H41.6z"/>
</g>
<g class="st0">
	<path d="M43.4,16.6c0-0.3,0.1-0.6,0.3-0.9c0.2-0.2,0.5-0.4,0.8-0.4c0.3,0,0.6,0.1,0.8,0.4c0.2,0.2,0.3,0.5,0.3,0.9
		c0,0.4-0.1,0.7-0.3,0.9c-0.2,0.2-0.5,0.3-0.8,0.3c-0.3,0-0.6-0.1-0.8-0.3C43.5,17.3,43.4,17,43.4,16.6z"/>
	<path d="M55.8,5.3v1.5H52v10.8h-1.8V6.8h-3.7V5.3H55.8z"/>
	<path d="M59.6,5.3h1.6L66,17.6h-1.8l-1.3-3.4h-5l-1.3,3.4h-1.8L59.6,5.3z M58.3,12.8h4l-0.8-2.1c-0.2-0.6-0.4-1.1-0.6-1.6
		c-0.2-0.5-0.4-1.1-0.5-1.6h0C60.1,8,60,8.5,59.8,9c-0.2,0.5-0.4,1.1-0.6,1.6L58.3,12.8z"/>
	<path d="M74.1,5.3v1.5h-3.8v10.8h-1.8V6.8h-3.7V5.3H74.1z"/>
	<path d="M84.1,5.3v1.5h-3.8v10.8h-1.8V6.8h-3.7V5.3H84.1z"/>
</g>
<g class="st0">
	<path class="st1" d="M94,5.1c0.8,0,1.6,0.1,2.3,0.4c0.7,0.3,1.3,0.7,1.8,1.2c0.5,0.5,0.9,1.2,1.2,2c0.3,0.8,0.4,1.7,0.4,2.8
		c0,1-0.1,1.9-0.4,2.7s-0.7,1.5-1.2,2c-0.5,0.5-1.1,0.9-1.8,1.2c-0.7,0.3-1.5,0.4-2.3,0.4s-1.6-0.1-2.3-0.4
		c-0.7-0.3-1.3-0.7-1.8-1.2c-0.5-0.5-0.9-1.2-1.2-2c-0.3-0.8-0.4-1.7-0.4-2.8c0-1,0.1-1.9,0.4-2.7c0.3-0.8,0.7-1.5,1.2-2
		c0.5-0.5,1.1-0.9,1.8-1.2C92.4,5.3,93.2,5.1,94,5.1z M90.2,11.5c0,0.8,0.1,1.6,0.3,2.2c0.2,0.6,0.5,1.1,0.8,1.5
		c0.3,0.4,0.8,0.7,1.2,0.9c0.5,0.2,1,0.3,1.5,0.3s1-0.1,1.5-0.3c0.5-0.2,0.9-0.5,1.2-0.9c0.3-0.4,0.6-0.9,0.8-1.5
		c0.2-0.6,0.3-1.3,0.3-2.2c0-0.9-0.1-1.6-0.3-2.2c-0.2-0.6-0.5-1.1-0.8-1.5S95.9,7,95.4,6.8s-1-0.3-1.5-0.3s-1,0.1-1.5,0.3
		s-0.9,0.5-1.2,0.9c-0.3,0.4-0.6,0.9-0.8,1.5C90.3,9.9,90.2,10.6,90.2,11.5z"/>
</g>
<g class="st0">
	<path d="M107.4,5.1c0.8,0,1.6,0.1,2.3,0.4c0.7,0.3,1.3,0.7,1.8,1.2c0.5,0.5,0.9,1.2,1.2,2c0.3,0.8,0.4,1.7,0.4,2.8
		c0,1-0.1,1.9-0.4,2.7s-0.7,1.5-1.2,2c-0.5,0.5-1.1,0.9-1.8,1.2c-0.7,0.3-1.5,0.4-2.3,0.4s-1.6-0.1-2.3-0.4s-1.3-0.7-1.8-1.2
		c-0.5-0.5-0.9-1.2-1.2-2s-0.4-1.7-0.4-2.8c0-1,0.1-1.9,0.4-2.7c0.3-0.8,0.7-1.5,1.2-2c0.5-0.5,1.1-0.9,1.8-1.2
		C105.8,5.3,106.6,5.1,107.4,5.1z M103.5,11.5c0,0.8,0.1,1.6,0.3,2.2c0.2,0.6,0.5,1.1,0.8,1.5c0.3,0.4,0.8,0.7,1.2,0.9
		s1,0.3,1.5,0.3s1-0.1,1.5-0.3c0.5-0.2,0.9-0.5,1.2-0.9c0.3-0.4,0.6-0.9,0.8-1.5c0.2-0.6,0.3-1.3,0.3-2.2c0-0.9-0.1-1.6-0.3-2.2
		c-0.2-0.6-0.5-1.1-0.8-1.5c-0.3-0.4-0.8-0.7-1.2-0.9c-0.5-0.2-1-0.3-1.5-0.3c-0.5,0-1,0.1-1.5,0.3c-0.5,0.2-0.9,0.5-1.2,0.9
		c-0.3,0.4-0.6,0.9-0.8,1.5S103.5,10.6,103.5,11.5z"/>
	<path d="M123.7,5.3c0.9,0,1.7,0.1,2.4,0.4c0.7,0.2,1.4,0.6,1.9,1.1s0.9,1.1,1.2,1.8c0.3,0.7,0.5,1.6,0.5,2.6c0,1.2-0.2,2.2-0.5,3
		c-0.4,0.8-0.8,1.5-1.5,2c-0.6,0.5-1.3,0.9-2.1,1.1c-0.8,0.2-1.7,0.3-2.5,0.3h-3.3V5.3H123.7z M121.5,16.1h1.3
		c0.6,0,1.2-0.1,1.8-0.2c0.6-0.1,1.1-0.4,1.6-0.8s0.8-0.9,1.1-1.5c0.3-0.6,0.4-1.5,0.4-2.5c0-0.7-0.1-1.3-0.3-1.9
		c-0.2-0.5-0.5-1-0.9-1.4c-0.4-0.4-0.8-0.7-1.4-0.9c-0.5-0.2-1.2-0.3-1.8-0.3h-1.8V16.1z"/>
</g>
<g class="st0">
	<path class="st1" d="M132.5,5.3h7.3v1.5h-5.5v3.7h5V12h-5v4.2h5.6v1.5h-7.4V5.3z"/>
</g>
<g class="st0">
	<path d="M145.3,6.1c0.5,0,1.1,0,1.6,0.1c0.5,0.1,1,0.3,1.5,0.5L148,8.1c-0.5-0.2-1-0.4-1.4-0.5c-0.4-0.1-0.8-0.2-1.2-0.2
		c-0.7,0-1.2,0.1-1.6,0.4c-0.4,0.3-0.6,0.7-0.6,1.3c0,0.5,0.1,0.8,0.4,1.1c0.3,0.3,0.8,0.5,1.4,0.7l1.1,0.4c1,0.3,1.7,0.8,2.1,1.3
		s0.6,1.2,0.6,1.9c0,0.5-0.1,0.9-0.3,1.3c-0.2,0.4-0.5,0.7-0.8,1c-0.3,0.3-0.8,0.5-1.2,0.6c-0.5,0.2-1,0.2-1.6,0.2s-1.1-0.1-1.7-0.2
		s-1.2-0.3-1.7-0.6l0.4-1.4c0.5,0.3,1,0.4,1.5,0.6c0.5,0.1,1,0.2,1.5,0.2c0.6,0,1.2-0.2,1.6-0.5c0.4-0.3,0.7-0.7,0.7-1.3
		c0-0.2,0-0.4-0.1-0.6c-0.1-0.2-0.2-0.4-0.3-0.5s-0.4-0.3-0.6-0.5c-0.3-0.1-0.6-0.3-1-0.4l-1.1-0.4c-0.8-0.3-1.4-0.6-1.9-1.1
		c-0.4-0.5-0.7-1.1-0.7-1.9c0-1,0.3-1.8,1-2.4C143.2,6.4,144.1,6.1,145.3,6.1z"/>
	<path d="M152.8,6.3v11.3h-1.6V6.3H152.8z"/>
	<path d="M160.4,6.1c0.6,0,1.2,0,1.8,0.1c0.5,0.1,1,0.3,1.5,0.5l-0.4,1.3c-0.4-0.2-0.9-0.4-1.3-0.4s-0.9-0.1-1.4-0.1
		c-0.5,0-1,0.1-1.5,0.2c-0.5,0.2-0.9,0.4-1.2,0.8s-0.6,0.8-0.9,1.4c-0.2,0.6-0.3,1.3-0.3,2.1c0,1.5,0.3,2.6,1,3.3
		c0.6,0.8,1.6,1.1,2.7,1.1c0.4,0,0.8,0,1.2-0.1c0.3,0,0.6-0.1,0.9-0.3V13h-2.1v-1.3h3.6v5.5c-0.5,0.2-1,0.4-1.6,0.5s-1.3,0.2-2,0.2
		c-0.8,0-1.5-0.1-2.1-0.4c-0.7-0.3-1.2-0.6-1.7-1.1c-0.5-0.5-0.9-1.1-1.2-1.8c-0.3-0.7-0.4-1.6-0.4-2.5c0-0.9,0.1-1.8,0.4-2.5
		s0.7-1.3,1.1-1.8c0.5-0.5,1.1-0.9,1.7-1.1C158.9,6.3,159.6,6.1,160.4,6.1z"/>
	<path d="M166.5,6.3h1.4l5.1,7.2c0.2,0.3,0.4,0.5,0.5,0.8c0.2,0.3,0.3,0.5,0.5,0.8h0c0-0.4,0-0.8-0.1-1.3s0-0.8,0-1.3V6.3h1.6v11.3
		h-1.4l-5-7.1c-0.2-0.3-0.4-0.5-0.5-0.9c-0.2-0.3-0.4-0.6-0.5-0.9h0c0,0.5,0,1,0.1,1.5s0,1,0,1.5v5.9h-1.6V6.3z"/>
</g>
</svg>
